<?xml version="1.0" encoding="utf-8" standalone="no"?>
<!DOCTYPE svg PUBLIC "-//W3C//DTD SVG 1.1//EN"
  "http://www.w3.org/Graphics/SVG/1.1/DTD/svg11.dtd">
<!-- Created with matplotlib (http://matplotlib.org/) -->
<svg height="432pt" version="1.1" viewBox="0 0 576 432" width="576pt" xmlns="http://www.w3.org/2000/svg" xmlns:xlink="http://www.w3.org/1999/xlink">
 <defs>
  <style type="text/css">
*{stroke-linecap:butt;stroke-linejoin:round;stroke-miterlimit:100000;}
  </style>
 </defs>
 <g id="figure_1">
  <g id="patch_1">
   <path d="M 0 432 
L 576 432 
L 576 0 
L 0 0 
z
" style="fill:#ffffff;"/>
  </g>
  <g id="axes_1">
   <g id="patch_2">
    <path d="M 72 388.8 
L 518.4 388.8 
L 518.4 43.2 
L 72 43.2 
z
" style="fill:#ffffff;"/>
   </g>
   <g id="line2d_1">
    <path clip-path="url(#p1b5abd12f0)" d="M 72 158.4 
L 72.53568 158.50365 
L 73.07136 158.814251 
L 73.69632 159.436839 
L 74.41056 160.48842 
L 75.21408 162.099092 
L 76.10688 164.409928 
L 77.08896 167.570713 
L 78.2496 172.118019 
L 79.49952 177.964886 
L 80.928 185.801336 
L 82.44576 195.399314 
L 84.23136 208.21146 
L 86.37408 225.344585 
L 92.35584 274.40782 
L 93.78432 283.648309 
L 94.94496 289.756208 
L 95.92704 293.818923 
L 96.81984 296.587029 
L 97.53408 298.158309 
L 98.15904 299.067071 
L 98.69472 299.505208 
L 99.14112 299.634738 
L 99.58752 299.554686 
L 100.1232 299.18871 
L 100.65888 298.536582 
L 101.28384 297.426172 
L 101.99808 295.713638 
L 102.89088 292.937632 
L 103.87296 289.109096 
L 105.0336 283.592044 
L 106.28352 276.505178 
L 107.712 267.008421 
L 109.22976 255.332672 
L 110.8368 241.241876 
L 112.6224 223.626461 
L 114.8544 199.243605 
L 119.40768 148.81158 
L 120.83616 135.922314 
L 121.9968 127.427731 
L 122.97888 121.810864 
L 123.7824 118.325743 
L 124.49664 116.060455 
L 125.1216 114.702591 
L 125.65728 113.984576 
L 126.10368 113.687753 
L 126.55008 113.653734 
L 126.99648 113.87153 
L 127.53216 114.449722 
L 128.15712 115.537485 
L 128.87136 117.29098 
L 129.67488 119.868353 
L 130.65696 123.821123 
L 131.8176 129.540981 
L 133.06752 136.880092 
L 134.496 146.686113 
L 136.01376 158.721544 
L 137.6208 173.281535 
L 139.31712 190.690758 
L 141.192 212.278769 
L 143.60256 242.839616 
L 146.90592 284.611448 
L 148.3344 299.860145 
L 149.49504 309.99664 
L 150.47712 316.74534 
L 151.36992 321.367254 
L 152.08416 324.042198 
L 152.70912 325.667288 
L 153.2448 326.555212 
L 153.6912 326.957484 
L 154.1376 327.068599 
L 154.584 326.903629 
L 155.0304 326.477498 
L 155.56608 325.641743 
L 156.19104 324.249203 
L 156.99456 321.850657 
L 157.88736 318.454435 
L 158.95872 313.459133 
L 160.20864 306.476792 
L 161.54784 297.715259 
L 163.0656 286.249342 
L 164.67264 272.334495 
L 166.36896 255.614936 
L 168.15456 235.713255 
L 170.11872 211.248857 
L 173.68992 163.113108 
L 175.5648 139.732921 
L 176.904 125.745867 
L 177.97536 116.759907 
L 178.86816 110.92154 
L 179.67168 106.965779 
L 180.38592 104.452278 
L 181.01088 102.988262 
L 181.54656 102.24761 
L 181.99296 101.971684 
L 182.35008 101.962334 
L 182.79648 102.200917 
L 183.24288 102.702413 
L 183.77856 103.629332 
L 184.4928 105.375868 
L 185.29632 107.977409 
L 186.2784 111.98217 
L 187.43904 117.766751 
L 188.68896 125.153636 
L 190.11744 134.96683 
L 191.6352 146.949061 
L 193.24224 161.401882 
L 194.93856 178.698726 
L 196.72416 199.220836 
L 198.7776 225.532537 
L 204.22368 297.200772 
L 205.4736 309.716452 
L 206.45568 317.573693 
L 207.34848 323.100834 
L 208.152 326.763042 
L 208.86624 329.015764 
L 209.4912 330.257498 
L 210.02688 330.814708 
L 210.47328 330.943869 
L 210.8304 330.840187 
L 211.2768 330.466041 
L 211.81248 329.679944 
L 212.43744 328.331574 
L 213.24096 325.974405 
L 214.13376 322.611999 
L 215.20512 317.650832 
L 216.45504 310.711259 
L 217.79424 302.009357 
L 219.312 290.635745 
L 220.91904 276.848516 
L 222.61536 260.286722 
L 224.40096 240.543086 
L 226.36512 216.155913 
L 229.04352 179.683499 
L 231.63264 145.193158 
L 233.06112 129.021383 
L 234.22176 118.339003 
L 235.20384 111.286051 
L 236.00736 106.913586 
L 236.7216 104.061064 
L 237.34656 102.327208 
L 237.88224 101.37551 
L 238.32864 100.937635 
L 238.77504 100.804317 
L 239.13216 100.90529 
L 239.57856 101.276704 
L 240.11424 102.060314 
L 240.7392 103.406622 
L 241.54272 105.762048 
L 242.43552 109.123187 
L 243.50688 114.083097 
L 244.7568 121.020827 
L 246.18528 130.344374 
L 247.70304 141.806255 
L 249.31008 155.686557 
L 251.0064 172.349269 
L 252.792 192.201657 
L 254.75616 216.701487 
L 257.52384 254.502777 
L 260.02368 287.679032 
L 261.45216 303.725359 
L 262.6128 314.273452 
L 263.59488 321.201357 
L 264.3984 325.470207 
L 265.11264 328.233079 
L 265.7376 329.892046 
L 266.27328 330.782908 
L 266.71968 331.17271 
L 267.16608 331.260439 
L 267.61248 331.063439 
L 268.05888 330.598679 
L 268.59456 329.710385 
L 269.3088 328.007852 
L 270.11232 325.448182 
L 271.0944 321.487475 
L 272.25504 315.749959 
L 273.50496 308.412963 
L 274.93344 298.660908 
L 276.4512 286.752273 
L 278.05824 272.388373 
L 279.75456 255.19388 
L 281.54016 234.774285 
L 283.5936 208.530136 
L 289.30752 133.211573 
L 290.46816 121.69056 
L 291.45024 113.866568 
L 292.34304 108.381386 
L 293.14656 104.763023 
L 293.8608 102.551765 
L 294.48576 101.346874 
L 294.93216 100.87749 
L 295.37856 100.714662 
L 295.73568 100.793423 
L 296.18208 101.138743 
L 296.71776 101.893335 
L 297.34272 103.208664 
L 298.05696 105.237643 
L 298.94976 108.488065 
L 300.02112 113.328957 
L 301.27104 120.140928 
L 302.61024 128.713778 
L 304.128 139.942615 
L 305.73504 153.571402 
L 307.43136 169.956931 
L 309.21696 189.510534 
L 311.09184 212.55487 
L 313.59168 246.368125 
L 316.6272 287.083564 
L 318.05568 303.239067 
L 319.21632 313.895451 
L 320.1984 320.920225 
L 321.00192 325.267326 
L 321.71616 328.096702 
L 322.34112 329.810472 
L 322.8768 330.745389 
L 323.3232 331.169727 
L 323.7696 331.289993 
L 324.216 331.123566 
L 324.6624 330.687485 
L 325.19808 329.831248 
L 325.82304 328.40662 
L 326.62656 325.959587 
L 327.51936 322.506849 
L 328.59072 317.448153 
L 329.84064 310.406021 
L 331.26912 300.971467 
L 332.78688 289.395051 
L 334.39392 275.391802 
L 336.09024 258.594317 
L 337.87584 238.597235 
L 339.84 213.952791 
L 342.69696 174.825706 
L 345.01824 144.135046 
L 346.44672 128.112238 
L 347.60736 117.59046 
L 348.58944 110.687565 
L 349.39296 106.439692 
L 350.1072 103.695119 
L 350.73216 102.051534 
L 351.26784 101.173226 
L 351.71424 100.79338 
L 352.16064 100.715122 
L 352.60704 100.921098 
L 353.05344 101.394344 
L 353.58912 102.292196 
L 354.30336 104.006477 
L 355.10688 106.578144 
L 356.08896 110.552032 
L 357.2496 116.303496 
L 358.49952 123.654145 
L 359.928 133.420822 
L 361.44576 145.344619 
L 363.0528 159.72482 
L 364.74912 176.93713 
L 366.53472 197.37566 
L 368.58816 223.638918 
L 374.30208 298.93328 
L 375.46272 310.429741 
L 376.4448 318.230231 
L 377.3376 323.693382 
L 378.14112 327.292323 
L 378.85536 329.487143 
L 379.48032 330.678515 
L 379.92672 331.138796 
L 380.37312 331.293006 
L 380.73024 331.207697 
L 381.17664 330.854621 
L 381.71232 330.091326 
L 382.33728 328.766622 
L 383.05152 326.727856 
L 383.94432 323.466387 
L 385.01568 318.613626 
L 386.2656 311.789168 
L 387.6048 303.203911 
L 389.12256 291.961485 
L 390.7296 278.318175 
L 392.42592 261.916727 
L 394.21152 242.34591 
L 396.0864 219.284674 
L 398.58624 185.458364 
L 401.62176 144.761959 
L 403.05024 128.631911 
L 404.21088 118.001609 
L 405.19296 111.000583 
L 405.99648 106.672888 
L 406.71072 103.860138 
L 407.33568 102.160154 
L 407.87136 101.236373 
L 408.31776 100.820795 
L 408.76416 100.708807 
L 409.21056 100.883033 
L 409.65696 101.326447 
L 410.19264 102.190899 
L 410.8176 103.624366 
L 411.62112 106.081718 
L 412.51392 109.544766 
L 413.58528 114.614591 
L 414.8352 121.668523 
L 416.26368 131.115699 
L 417.78144 142.705233 
L 419.38848 156.722654 
L 421.0848 173.535729 
L 422.8704 193.549504 
L 424.83456 218.210369 
L 427.7808 258.580987 
L 430.10208 289.100359 
L 431.44128 304.013384 
L 432.51264 313.790616 
L 433.49472 320.840674 
L 434.29824 325.208343 
L 435.01248 328.055287 
L 435.63744 329.783588 
L 436.17312 330.730218 
L 436.61952 331.163757 
L 437.06592 331.292707 
L 437.42304 331.188253 
L 437.86944 330.81254 
L 438.40512 330.023894 
L 439.03008 328.671936 
L 439.8336 326.309666 
L 440.7264 322.941521 
L 441.79776 317.974026 
L 443.04768 311.028478 
L 444.47616 301.69712 
L 445.99392 290.227899 
L 447.60096 276.340474 
L 449.29728 259.670478 
L 451.08288 239.810156 
L 453.04704 215.300774 
L 455.81472 177.484668 
L 458.31456 144.296473 
L 459.74304 128.245735 
L 460.90368 117.695808 
L 461.88576 110.767519 
L 462.68928 106.499022 
L 463.40352 103.736853 
L 464.02848 102.078723 
L 464.56416 101.188693 
L 465.01056 100.799641 
L 465.45696 100.712695 
L 465.90336 100.910495 
L 466.34976 101.37606 
L 466.88544 102.265313 
L 467.59968 103.969091 
L 468.4032 106.53009 
L 469.38528 110.492294 
L 470.54592 116.231388 
L 471.79584 123.569855 
L 473.22432 133.323342 
L 474.74208 145.23327 
L 476.34912 159.598369 
L 478.04544 176.794066 
L 479.83104 197.215033 
L 481.88448 223.461177 
L 487.5984 298.788966 
L 488.75904 310.31198 
L 489.74112 318.137452 
L 490.63392 323.623764 
L 491.43744 327.242961 
L 492.15168 329.454821 
L 492.77664 330.660142 
L 493.22304 331.129783 
L 493.66944 331.292835 
L 494.02656 331.214228 
L 494.47296 330.869078 
L 495.00864 330.114658 
L 495.6336 328.799496 
L 496.34784 326.770673 
L 497.24064 323.520413 
L 498.312 318.679689 
L 499.56192 311.867909 
L 500.90112 303.295285 
L 502.41888 292.066753 
L 504.02592 278.438358 
L 505.72224 262.053309 
L 507.50784 242.500229 
L 509.38272 219.456303 
L 511.88256 185.642844 
L 514.91808 144.924896 
L 516.34656 128.767307 
L 517.5072 118.109004 
L 518.31072 112.219951 
L 518.31072 112.219951 
" style="fill:none;stroke:#0000ff;stroke-linecap:square;"/>
   </g>
   <g id="patch_3">
    <path d="M 72 388.8 
L 72 43.2 
" style="fill:none;stroke:#000000;stroke-linecap:square;stroke-linejoin:miter;"/>
   </g>
   <g id="patch_4">
    <path d="M 72 388.8 
L 518.4 388.8 
" style="fill:none;stroke:#000000;stroke-linecap:square;stroke-linejoin:miter;"/>
   </g>
   <g id="matplotlib.axis_1">
    <g id="xtick_1">
     <g id="line2d_2">
      <path clip-path="url(#p1b5abd12f0)" d="M 72 388.8 
L 72 43.2 
" style="fill:none;stroke:#000000;stroke-dasharray:1.000000,3.000000;stroke-dashoffset:0.0;stroke-width:0.5;"/>
     </g>
     <g id="line2d_3">
      <defs>
       <path d="M 0 0 
L 0 -4 
" id="mec421137f7" style="stroke:#000000;stroke-width:0.5;"/>
      </defs>
      <g>
       <use style="stroke:#000000;stroke-width:0.5;" x="72.0" xlink:href="#mec421137f7" y="388.8"/>
      </g>
     </g>
     <g id="text_1">
      <!-- 0 -->
      <defs>
       <path d="M 31.78125 66.40625 
Q 24.171875 66.40625 20.328125 58.90625 
Q 16.5 51.421875 16.5 36.375 
Q 16.5 21.390625 20.328125 13.890625 
Q 24.171875 6.390625 31.78125 6.390625 
Q 39.453125 6.390625 43.28125 13.890625 
Q 47.125 21.390625 47.125 36.375 
Q 47.125 51.421875 43.28125 58.90625 
Q 39.453125 66.40625 31.78125 66.40625 
M 31.78125 74.21875 
Q 44.046875 74.21875 50.515625 64.515625 
Q 56.984375 54.828125 56.984375 36.375 
Q 56.984375 17.96875 50.515625 8.265625 
Q 44.046875 -1.421875 31.78125 -1.421875 
Q 19.53125 -1.421875 13.0625 8.265625 
Q 6.59375 17.96875 6.59375 36.375 
Q 6.59375 54.828125 13.0625 64.515625 
Q 19.53125 74.21875 31.78125 74.21875 
" id="BitstreamVeraSans-Roman-30"/>
      </defs>
      <g transform="translate(68.1825 401.918125)scale(0.12 -0.12)">
       <use xlink:href="#BitstreamVeraSans-Roman-30"/>
      </g>
     </g>
    </g>
    <g id="xtick_2">
     <g id="line2d_4">
      <path clip-path="url(#p1b5abd12f0)" d="M 161.28 388.8 
L 161.28 43.2 
" style="fill:none;stroke:#000000;stroke-dasharray:1.000000,3.000000;stroke-dashoffset:0.0;stroke-width:0.5;"/>
     </g>
     <g id="line2d_5">
      <g>
       <use style="stroke:#000000;stroke-width:0.5;" x="161.28" xlink:href="#mec421137f7" y="388.8"/>
      </g>
     </g>
     <g id="text_2">
      <!-- 10 -->
      <defs>
       <path d="M 12.40625 8.296875 
L 28.515625 8.296875 
L 28.515625 63.921875 
L 10.984375 60.40625 
L 10.984375 69.390625 
L 28.421875 72.90625 
L 38.28125 72.90625 
L 38.28125 8.296875 
L 54.390625 8.296875 
L 54.390625 0 
L 12.40625 0 
z
" id="BitstreamVeraSans-Roman-31"/>
      </defs>
      <g transform="translate(153.645 401.918125)scale(0.12 -0.12)">
       <use xlink:href="#BitstreamVeraSans-Roman-31"/>
       <use x="63.623046875" xlink:href="#BitstreamVeraSans-Roman-30"/>
      </g>
     </g>
    </g>
    <g id="xtick_3">
     <g id="line2d_6">
      <path clip-path="url(#p1b5abd12f0)" d="M 250.56 388.8 
L 250.56 43.2 
" style="fill:none;stroke:#000000;stroke-dasharray:1.000000,3.000000;stroke-dashoffset:0.0;stroke-width:0.5;"/>
     </g>
     <g id="line2d_7">
      <g>
       <use style="stroke:#000000;stroke-width:0.5;" x="250.56" xlink:href="#mec421137f7" y="388.8"/>
      </g>
     </g>
     <g id="text_3">
      <!-- 20 -->
      <defs>
       <path d="M 19.1875 8.296875 
L 53.609375 8.296875 
L 53.609375 0 
L 7.328125 0 
L 7.328125 8.296875 
Q 12.9375 14.109375 22.625 23.890625 
Q 32.328125 33.6875 34.8125 36.53125 
Q 39.546875 41.84375 41.421875 45.53125 
Q 43.3125 49.21875 43.3125 52.78125 
Q 43.3125 58.59375 39.234375 62.25 
Q 35.15625 65.921875 28.609375 65.921875 
Q 23.96875 65.921875 18.8125 64.3125 
Q 13.671875 62.703125 7.8125 59.421875 
L 7.8125 69.390625 
Q 13.765625 71.78125 18.9375 73 
Q 24.125 74.21875 28.421875 74.21875 
Q 39.75 74.21875 46.484375 68.546875 
Q 53.21875 62.890625 53.21875 53.421875 
Q 53.21875 48.921875 51.53125 44.890625 
Q 49.859375 40.875 45.40625 35.40625 
Q 44.1875 33.984375 37.640625 27.21875 
Q 31.109375 20.453125 19.1875 8.296875 
" id="BitstreamVeraSans-Roman-32"/>
      </defs>
      <g transform="translate(242.925 401.918125)scale(0.12 -0.12)">
       <use xlink:href="#BitstreamVeraSans-Roman-32"/>
       <use x="63.623046875" xlink:href="#BitstreamVeraSans-Roman-30"/>
      </g>
     </g>
    </g>
    <g id="xtick_4">
     <g id="line2d_8">
      <path clip-path="url(#p1b5abd12f0)" d="M 339.84 388.8 
L 339.84 43.2 
" style="fill:none;stroke:#000000;stroke-dasharray:1.000000,3.000000;stroke-dashoffset:0.0;stroke-width:0.5;"/>
     </g>
     <g id="line2d_9">
      <g>
       <use style="stroke:#000000;stroke-width:0.5;" x="339.84" xlink:href="#mec421137f7" y="388.8"/>
      </g>
     </g>
     <g id="text_4">
      <!-- 30 -->
      <defs>
       <path d="M 40.578125 39.3125 
Q 47.65625 37.796875 51.625 33 
Q 55.609375 28.21875 55.609375 21.1875 
Q 55.609375 10.40625 48.1875 4.484375 
Q 40.765625 -1.421875 27.09375 -1.421875 
Q 22.515625 -1.421875 17.65625 -0.515625 
Q 12.796875 0.390625 7.625 2.203125 
L 7.625 11.71875 
Q 11.71875 9.328125 16.59375 8.109375 
Q 21.484375 6.890625 26.8125 6.890625 
Q 36.078125 6.890625 40.9375 10.546875 
Q 45.796875 14.203125 45.796875 21.1875 
Q 45.796875 27.640625 41.28125 31.265625 
Q 36.765625 34.90625 28.71875 34.90625 
L 20.21875 34.90625 
L 20.21875 43.015625 
L 29.109375 43.015625 
Q 36.375 43.015625 40.234375 45.921875 
Q 44.09375 48.828125 44.09375 54.296875 
Q 44.09375 59.90625 40.109375 62.90625 
Q 36.140625 65.921875 28.71875 65.921875 
Q 24.65625 65.921875 20.015625 65.03125 
Q 15.375 64.15625 9.8125 62.3125 
L 9.8125 71.09375 
Q 15.4375 72.65625 20.34375 73.4375 
Q 25.25 74.21875 29.59375 74.21875 
Q 40.828125 74.21875 47.359375 69.109375 
Q 53.90625 64.015625 53.90625 55.328125 
Q 53.90625 49.265625 50.4375 45.09375 
Q 46.96875 40.921875 40.578125 39.3125 
" id="BitstreamVeraSans-Roman-33"/>
      </defs>
      <g transform="translate(332.205 401.918125)scale(0.12 -0.12)">
       <use xlink:href="#BitstreamVeraSans-Roman-33"/>
       <use x="63.623046875" xlink:href="#BitstreamVeraSans-Roman-30"/>
      </g>
     </g>
    </g>
    <g id="xtick_5">
     <g id="line2d_10">
      <path clip-path="url(#p1b5abd12f0)" d="M 429.12 388.8 
L 429.12 43.2 
" style="fill:none;stroke:#000000;stroke-dasharray:1.000000,3.000000;stroke-dashoffset:0.0;stroke-width:0.5;"/>
     </g>
     <g id="line2d_11">
      <g>
       <use style="stroke:#000000;stroke-width:0.5;" x="429.12" xlink:href="#mec421137f7" y="388.8"/>
      </g>
     </g>
     <g id="text_5">
      <!-- 40 -->
      <defs>
       <path d="M 37.796875 64.3125 
L 12.890625 25.390625 
L 37.796875 25.390625 
z
M 35.203125 72.90625 
L 47.609375 72.90625 
L 47.609375 25.390625 
L 58.015625 25.390625 
L 58.015625 17.1875 
L 47.609375 17.1875 
L 47.609375 0 
L 37.796875 0 
L 37.796875 17.1875 
L 4.890625 17.1875 
L 4.890625 26.703125 
z
" id="BitstreamVeraSans-Roman-34"/>
      </defs>
      <g transform="translate(421.485 401.918125)scale(0.12 -0.12)">
       <use xlink:href="#BitstreamVeraSans-Roman-34"/>
       <use x="63.623046875" xlink:href="#BitstreamVeraSans-Roman-30"/>
      </g>
     </g>
    </g>
    <g id="xtick_6">
     <g id="line2d_12">
      <path clip-path="url(#p1b5abd12f0)" d="M 518.4 388.8 
L 518.4 43.2 
" style="fill:none;stroke:#000000;stroke-dasharray:1.000000,3.000000;stroke-dashoffset:0.0;stroke-width:0.5;"/>
     </g>
     <g id="line2d_13">
      <g>
       <use style="stroke:#000000;stroke-width:0.5;" x="518.4" xlink:href="#mec421137f7" y="388.8"/>
      </g>
     </g>
     <g id="text_6">
      <!-- 50 -->
      <defs>
       <path d="M 10.796875 72.90625 
L 49.515625 72.90625 
L 49.515625 64.59375 
L 19.828125 64.59375 
L 19.828125 46.734375 
Q 21.96875 47.46875 24.109375 47.828125 
Q 26.265625 48.1875 28.421875 48.1875 
Q 40.625 48.1875 47.75 41.5 
Q 54.890625 34.8125 54.890625 23.390625 
Q 54.890625 11.625 47.5625 5.09375 
Q 40.234375 -1.421875 26.90625 -1.421875 
Q 22.3125 -1.421875 17.546875 -0.640625 
Q 12.796875 0.140625 7.71875 1.703125 
L 7.71875 11.625 
Q 12.109375 9.234375 16.796875 8.0625 
Q 21.484375 6.890625 26.703125 6.890625 
Q 35.15625 6.890625 40.078125 11.328125 
Q 45.015625 15.765625 45.015625 23.390625 
Q 45.015625 31 40.078125 35.4375 
Q 35.15625 39.890625 26.703125 39.890625 
Q 22.75 39.890625 18.8125 39.015625 
Q 14.890625 38.140625 10.796875 36.28125 
z
" id="BitstreamVeraSans-Roman-35"/>
      </defs>
      <g transform="translate(510.765 401.918125)scale(0.12 -0.12)">
       <use xlink:href="#BitstreamVeraSans-Roman-35"/>
       <use x="63.623046875" xlink:href="#BitstreamVeraSans-Roman-30"/>
      </g>
     </g>
    </g>
    <g id="text_7">
     <!-- $t$ -->
     <defs>
      <path d="M 6.203125 8.109375 
Q 6.203125 9.578125 6.5 10.890625 
L 13.71875 39.59375 
L 3.21875 39.59375 
Q 2.203125 39.59375 2.203125 40.921875 
Q 2.59375 43.109375 3.515625 43.109375 
L 14.59375 43.109375 
L 18.609375 59.421875 
Q 19 60.75 20.171875 61.671875 
Q 21.34375 62.59375 22.796875 62.59375 
Q 24.078125 62.59375 24.921875 61.828125 
Q 25.78125 61.078125 25.78125 59.8125 
Q 25.78125 59.515625 25.75 59.34375 
Q 25.734375 59.1875 25.6875 58.984375 
L 21.6875 43.109375 
L 31.984375 43.109375 
Q 33.015625 43.109375 33.015625 41.796875 
Q 32.953125 41.546875 32.8125 40.953125 
Q 32.671875 40.375 32.421875 39.984375 
Q 32.171875 39.59375 31.6875 39.59375 
L 20.796875 39.59375 
L 13.625 10.6875 
Q 12.890625 7.859375 12.890625 5.8125 
Q 12.890625 1.515625 15.828125 1.515625 
Q 20.21875 1.515625 23.609375 5.640625 
Q 27 9.765625 28.8125 14.703125 
Q 29.203125 15.28125 29.59375 15.28125 
L 30.8125 15.28125 
Q 31.203125 15.28125 31.4375 15.015625 
Q 31.6875 14.75 31.6875 14.40625 
Q 31.6875 14.203125 31.59375 14.109375 
Q 29.390625 8.0625 25.1875 3.46875 
Q 21 -1.125 15.578125 -1.125 
Q 11.625 -1.125 8.90625 1.453125 
Q 6.203125 4.046875 6.203125 8.109375 
" id="Cmmi10-74"/>
     </defs>
     <g transform="translate(292.98 418.531875)scale(0.12 -0.12)">
      <use transform="translate(0.0 0.40625)" xlink:href="#Cmmi10-74"/>
     </g>
    </g>
   </g>
   <g id="matplotlib.axis_2">
    <g id="ytick_1">
     <g id="line2d_14">
      <path clip-path="url(#p1b5abd12f0)" d="M 72 388.8 
L 518.4 388.8 
" style="fill:none;stroke:#000000;stroke-dasharray:1.000000,3.000000;stroke-dashoffset:0.0;stroke-width:0.5;"/>
     </g>
     <g id="line2d_15">
      <defs>
       <path d="M 0 0 
L 4 0 
" id="md958be8adc" style="stroke:#000000;stroke-width:0.5;"/>
      </defs>
      <g>
       <use style="stroke:#000000;stroke-width:0.5;" x="72.0" xlink:href="#md958be8adc" y="388.8"/>
      </g>
     </g>
     <g id="text_8">
      <!-- −3 -->
      <defs>
       <path d="M 10.59375 35.5 
L 73.1875 35.5 
L 73.1875 27.203125 
L 10.59375 27.203125 
z
" id="BitstreamVeraSans-Roman-2212"/>
      </defs>
      <g transform="translate(50.309375 392.11125)scale(0.12 -0.12)">
       <use xlink:href="#BitstreamVeraSans-Roman-2212"/>
       <use x="83.7890625" xlink:href="#BitstreamVeraSans-Roman-33"/>
      </g>
     </g>
    </g>
    <g id="ytick_2">
     <g id="line2d_16">
      <path clip-path="url(#p1b5abd12f0)" d="M 72 331.2 
L 518.4 331.2 
" style="fill:none;stroke:#000000;stroke-dasharray:1.000000,3.000000;stroke-dashoffset:0.0;stroke-width:0.5;"/>
     </g>
     <g id="line2d_17">
      <g>
       <use style="stroke:#000000;stroke-width:0.5;" x="72.0" xlink:href="#md958be8adc" y="331.2"/>
      </g>
     </g>
     <g id="text_9">
      <!-- −2 -->
      <g transform="translate(50.309375 334.51125)scale(0.12 -0.12)">
       <use xlink:href="#BitstreamVeraSans-Roman-2212"/>
       <use x="83.7890625" xlink:href="#BitstreamVeraSans-Roman-32"/>
      </g>
     </g>
    </g>
    <g id="ytick_3">
     <g id="line2d_18">
      <path clip-path="url(#p1b5abd12f0)" d="M 72 273.6 
L 518.4 273.6 
" style="fill:none;stroke:#000000;stroke-dasharray:1.000000,3.000000;stroke-dashoffset:0.0;stroke-width:0.5;"/>
     </g>
     <g id="line2d_19">
      <g>
       <use style="stroke:#000000;stroke-width:0.5;" x="72.0" xlink:href="#md958be8adc" y="273.6"/>
      </g>
     </g>
     <g id="text_10">
      <!-- −1 -->
      <g transform="translate(50.309375 276.91125)scale(0.12 -0.12)">
       <use xlink:href="#BitstreamVeraSans-Roman-2212"/>
       <use x="83.7890625" xlink:href="#BitstreamVeraSans-Roman-31"/>
      </g>
     </g>
    </g>
    <g id="ytick_4">
     <g id="line2d_20">
      <path clip-path="url(#p1b5abd12f0)" d="M 72 216 
L 518.4 216 
" style="fill:none;stroke:#000000;stroke-dasharray:1.000000,3.000000;stroke-dashoffset:0.0;stroke-width:0.5;"/>
     </g>
     <g id="line2d_21">
      <g>
       <use style="stroke:#000000;stroke-width:0.5;" x="72.0" xlink:href="#md958be8adc" y="216.0"/>
      </g>
     </g>
     <g id="text_11">
      <!-- 0 -->
      <g transform="translate(60.365 219.31125)scale(0.12 -0.12)">
       <use xlink:href="#BitstreamVeraSans-Roman-30"/>
      </g>
     </g>
    </g>
    <g id="ytick_5">
     <g id="line2d_22">
      <path clip-path="url(#p1b5abd12f0)" d="M 72 158.4 
L 518.4 158.4 
" style="fill:none;stroke:#000000;stroke-dasharray:1.000000,3.000000;stroke-dashoffset:0.0;stroke-width:0.5;"/>
     </g>
     <g id="line2d_23">
      <g>
       <use style="stroke:#000000;stroke-width:0.5;" x="72.0" xlink:href="#md958be8adc" y="158.4"/>
      </g>
     </g>
     <g id="text_12">
      <!-- 1 -->
      <g transform="translate(60.365 161.71125)scale(0.12 -0.12)">
       <use xlink:href="#BitstreamVeraSans-Roman-31"/>
      </g>
     </g>
    </g>
    <g id="ytick_6">
     <g id="line2d_24">
      <path clip-path="url(#p1b5abd12f0)" d="M 72 100.8 
L 518.4 100.8 
" style="fill:none;stroke:#000000;stroke-dasharray:1.000000,3.000000;stroke-dashoffset:0.0;stroke-width:0.5;"/>
     </g>
     <g id="line2d_25">
      <g>
       <use style="stroke:#000000;stroke-width:0.5;" x="72.0" xlink:href="#md958be8adc" y="100.8"/>
      </g>
     </g>
     <g id="text_13">
      <!-- 2 -->
      <g transform="translate(60.365 104.11125)scale(0.12 -0.12)">
       <use xlink:href="#BitstreamVeraSans-Roman-32"/>
      </g>
     </g>
    </g>
    <g id="ytick_7">
     <g id="line2d_26">
      <path clip-path="url(#p1b5abd12f0)" d="M 72 43.2 
L 518.4 43.2 
" style="fill:none;stroke:#000000;stroke-dasharray:1.000000,3.000000;stroke-dashoffset:0.0;stroke-width:0.5;"/>
     </g>
     <g id="line2d_27">
      <g>
       <use style="stroke:#000000;stroke-width:0.5;" x="72.0" xlink:href="#md958be8adc" y="43.2"/>
      </g>
     </g>
     <g id="text_14">
      <!-- 3 -->
      <g transform="translate(60.365 46.51125)scale(0.12 -0.12)">
       <use xlink:href="#BitstreamVeraSans-Roman-33"/>
      </g>
     </g>
    </g>
    <g id="text_15">
     <!-- $x_1$ -->
     <defs>
      <path d="M 9.28125 0 
L 9.28125 3.515625 
Q 21.78125 3.515625 21.78125 6.6875 
L 21.78125 59.1875 
Q 16.609375 56.6875 8.6875 56.6875 
L 8.6875 60.203125 
Q 20.953125 60.203125 27.203125 66.609375 
L 28.609375 66.609375 
Q 28.953125 66.609375 29.265625 66.328125 
Q 29.59375 66.0625 29.59375 65.71875 
L 29.59375 6.6875 
Q 29.59375 3.515625 42.09375 3.515625 
L 42.09375 0 
z
" id="Cmr10-31"/>
      <path d="M 7.8125 2.875 
Q 9.578125 1.515625 12.796875 1.515625 
Q 15.921875 1.515625 18.3125 4.515625 
Q 20.703125 7.515625 21.578125 11.078125 
L 26.125 28.8125 
Q 27.203125 33.640625 27.203125 35.40625 
Q 27.203125 37.890625 25.8125 39.75 
Q 24.421875 41.609375 21.921875 41.609375 
Q 18.75 41.609375 15.96875 39.625 
Q 13.1875 37.640625 11.28125 34.59375 
Q 9.375 31.546875 8.59375 28.421875 
Q 8.40625 27.78125 7.8125 27.78125 
L 6.59375 27.78125 
Q 5.8125 27.78125 5.8125 28.71875 
L 5.8125 29 
Q 6.78125 32.71875 9.125 36.25 
Q 11.46875 39.796875 14.859375 41.984375 
Q 18.265625 44.1875 22.125 44.1875 
Q 25.78125 44.1875 28.734375 42.234375 
Q 31.6875 40.28125 32.90625 36.921875 
Q 34.625 39.984375 37.28125 42.078125 
Q 39.9375 44.1875 43.109375 44.1875 
Q 45.265625 44.1875 47.5 43.421875 
Q 49.75 42.671875 51.171875 41.109375 
Q 52.59375 39.546875 52.59375 37.203125 
Q 52.59375 34.671875 50.953125 32.828125 
Q 49.3125 31 46.78125 31 
Q 45.171875 31 44.09375 32.03125 
Q 43.015625 33.0625 43.015625 34.625 
Q 43.015625 36.71875 44.453125 38.296875 
Q 45.90625 39.890625 47.90625 40.1875 
Q 46.09375 41.609375 42.921875 41.609375 
Q 39.703125 41.609375 37.328125 38.625 
Q 34.96875 35.640625 33.984375 31.984375 
L 29.59375 14.3125 
Q 28.515625 10.296875 28.515625 7.71875 
Q 28.515625 5.171875 29.953125 3.34375 
Q 31.390625 1.515625 33.796875 1.515625 
Q 38.484375 1.515625 42.15625 5.640625 
Q 45.84375 9.765625 47.015625 14.703125 
Q 47.21875 15.28125 47.796875 15.28125 
L 49.03125 15.28125 
Q 49.421875 15.28125 49.65625 15.015625 
Q 49.90625 14.75 49.90625 14.40625 
Q 49.90625 14.3125 49.8125 14.109375 
Q 48.390625 8.15625 43.84375 3.515625 
Q 39.3125 -1.125 33.59375 -1.125 
Q 29.9375 -1.125 26.984375 0.84375 
Q 24.03125 2.828125 22.796875 6.203125 
Q 21.234375 3.265625 18.46875 1.0625 
Q 15.71875 -1.125 12.59375 -1.125 
Q 10.453125 -1.125 8.171875 -0.359375 
Q 5.90625 0.390625 4.484375 1.953125 
Q 3.078125 3.515625 3.078125 5.90625 
Q 3.078125 8.25 4.703125 10.171875 
Q 6.34375 12.109375 8.796875 12.109375 
Q 10.453125 12.109375 11.578125 11.109375 
Q 12.703125 10.109375 12.703125 8.5 
Q 12.703125 6.390625 11.296875 4.828125 
Q 9.90625 3.265625 7.8125 2.875 
" id="Cmmi10-78"/>
     </defs>
     <g transform="translate(39.369375 213.504375)scale(0.12 -0.12)">
      <use transform="translate(0.0 0.8125)" xlink:href="#Cmmi10-78"/>
      <use transform="translate(57.080078125 -16.19375)scale(0.7)" xlink:href="#Cmr10-31"/>
     </g>
    </g>
   </g>
   <g id="text_16">
    <!-- Copyright - Guillaume Cantin - 2016 -->
    <defs>
     <path d="M 42.28125 54.6875 
L 40.921875 47.703125 
L 23 47.703125 
L 17.1875 18.015625 
Q 16.890625 16.359375 16.75 15.234375 
Q 16.609375 14.109375 16.609375 13.484375 
Q 16.609375 10.359375 18.484375 8.9375 
Q 20.359375 7.515625 24.515625 7.515625 
L 33.59375 7.515625 
L 32.078125 0 
L 23.484375 0 
Q 15.484375 0 11.546875 3.125 
Q 7.625 6.25 7.625 12.59375 
Q 7.625 13.71875 7.765625 15.0625 
Q 7.90625 16.40625 8.203125 18.015625 
L 14.015625 47.703125 
L 6.390625 47.703125 
L 7.8125 54.6875 
L 15.28125 54.6875 
L 18.3125 70.21875 
L 27.296875 70.21875 
L 24.3125 54.6875 
z
" id="BitstreamVeraSans-Oblique-74"/>
     <path d="M 48.09375 32.234375 
Q 48.25 33.015625 48.3125 33.84375 
Q 48.390625 34.671875 48.390625 35.5 
Q 48.390625 41.453125 44.890625 44.921875 
Q 41.40625 48.390625 35.40625 48.390625 
Q 28.71875 48.390625 23.578125 44.15625 
Q 18.453125 39.9375 15.828125 32.171875 
z
M 55.90625 25.203125 
L 14.109375 25.203125 
Q 13.8125 23.34375 13.71875 22.265625 
Q 13.625 21.1875 13.625 20.40625 
Q 13.625 13.625 17.796875 9.90625 
Q 21.96875 6.203125 29.59375 6.203125 
Q 35.453125 6.203125 40.671875 7.515625 
Q 45.90625 8.84375 50.390625 11.375 
L 48.6875 2.484375 
Q 43.84375 0.53125 38.6875 -0.4375 
Q 33.546875 -1.421875 28.21875 -1.421875 
Q 16.84375 -1.421875 10.71875 4.015625 
Q 4.59375 9.46875 4.59375 19.484375 
Q 4.59375 28.03125 7.640625 35.375 
Q 10.6875 42.71875 16.609375 48.484375 
Q 20.40625 52.09375 25.65625 54.046875 
Q 30.90625 56 36.8125 56 
Q 46.09375 56 51.578125 50.4375 
Q 57.078125 44.875 57.078125 35.5 
Q 57.078125 33.25 56.78125 30.6875 
Q 56.5 28.125 55.90625 25.203125 
" id="BitstreamVeraSans-Oblique-65"/>
     <path d="M 46.09375 35.203125 
L 14.59375 8.203125 
L 49.421875 8.203125 
L 47.703125 0 
L 0.390625 0 
L 2 8.296875 
L 34.90625 36.53125 
Q 41.5 42.234375 44.25 46.546875 
Q 47.015625 50.875 47.015625 55.421875 
Q 47.015625 60.15625 43.6875 63.125 
Q 40.375 66.109375 35.015625 66.109375 
Q 30.375 66.109375 24.703125 64.453125 
Q 19.046875 62.796875 12.59375 59.625 
L 14.40625 69.390625 
Q 20.453125 71.78125 25.96875 73 
Q 31.5 74.21875 36.1875 74.21875 
Q 45.75 74.21875 51.578125 69.140625 
Q 57.421875 64.0625 57.421875 55.8125 
Q 57.421875 50.25 54.640625 45.1875 
Q 51.859375 40.140625 46.09375 35.203125 
" id="BitstreamVeraSans-Oblique-32"/>
     <path d="M 18.3125 75.984375 
L 27.296875 75.984375 
L 25.09375 64.59375 
L 16.109375 64.59375 
z
M 14.203125 54.6875 
L 23.1875 54.6875 
L 12.5 0 
L 3.515625 0 
z
" id="BitstreamVeraSans-Oblique-69"/>
     <path d="M 55.71875 33.015625 
L 49.3125 0 
L 40.28125 0 
L 46.6875 32.671875 
Q 47.125 34.96875 47.359375 36.71875 
Q 47.609375 38.484375 47.609375 39.5 
Q 47.609375 43.609375 45.015625 45.890625 
Q 42.4375 48.1875 37.796875 48.1875 
Q 30.5625 48.1875 25.265625 43.296875 
Q 19.96875 38.421875 18.40625 30.328125 
L 12.5 0 
L 3.515625 0 
L 18.3125 75.984375 
L 27.296875 75.984375 
L 21.484375 46.09375 
Q 24.90625 50.6875 30.21875 53.34375 
Q 35.546875 56 41.40625 56 
Q 48.640625 56 52.609375 52.09375 
Q 56.59375 48.1875 56.59375 41.109375 
Q 56.59375 39.359375 56.375 37.359375 
Q 56.15625 35.359375 55.71875 33.015625 
" id="BitstreamVeraSans-Oblique-68"/>
     <path d="M 55.71875 33.015625 
L 49.3125 0 
L 40.28125 0 
L 46.6875 32.671875 
Q 47.125 34.96875 47.359375 36.71875 
Q 47.609375 38.484375 47.609375 39.5 
Q 47.609375 43.609375 45.015625 45.890625 
Q 42.4375 48.1875 37.796875 48.1875 
Q 30.5625 48.1875 25.34375 43.375 
Q 20.125 38.578125 18.5 30.328125 
L 12.5 0 
L 3.515625 0 
L 14.109375 54.6875 
L 23.09375 54.6875 
L 21.296875 46.09375 
Q 25.046875 50.828125 30.3125 53.40625 
Q 35.59375 56 41.40625 56 
Q 48.640625 56 52.609375 52.09375 
Q 56.59375 48.1875 56.59375 41.109375 
Q 56.59375 39.359375 56.375 37.359375 
Q 56.15625 35.359375 55.71875 33.015625 
" id="BitstreamVeraSans-Oblique-6e"/>
     <path d="M 54.59375 10.890625 
L 58.40625 29.984375 
L 42.1875 29.984375 
L 43.703125 38.09375 
L 69.578125 38.09375 
L 63.28125 6 
Q 56.78125 2.4375 49.109375 0.5 
Q 41.453125 -1.421875 33.6875 -1.421875 
Q 19.96875 -1.421875 12.234375 6.1875 
Q 4.5 13.8125 4.5 27.390625 
Q 4.5 38.671875 9.203125 48.84375 
Q 13.921875 59.03125 22.21875 65.828125 
Q 27.4375 70.0625 33.640625 72.140625 
Q 39.84375 74.21875 47.40625 74.21875 
Q 54.25 74.21875 60.515625 72.484375 
Q 66.796875 70.75 72.515625 67.28125 
L 70.515625 56.78125 
Q 66.109375 61.375 60.203125 63.796875 
Q 54.296875 66.21875 47.609375 66.21875 
Q 39.84375 66.21875 33.9375 63.25 
Q 28.03125 60.296875 23.390625 54.109375 
Q 19.4375 48.828125 17.15625 41.671875 
Q 14.890625 34.515625 14.890625 27.09375 
Q 14.890625 16.890625 20.109375 11.734375 
Q 25.34375 6.59375 35.6875 6.59375 
Q 40.875 6.59375 45.703125 7.6875 
Q 50.53125 8.796875 54.59375 10.890625 
" id="BitstreamVeraSans-Oblique-47"/>
     <path d="M 44.578125 46.390625 
Q 43.21875 47.125 41.453125 47.515625 
Q 39.703125 47.90625 37.703125 47.90625 
Q 30.515625 47.90625 25.140625 42.453125 
Q 19.78125 37.015625 18.015625 27.875 
L 12.5 0 
L 3.515625 0 
L 14.203125 54.6875 
L 23.1875 54.6875 
L 21.484375 46.1875 
Q 25.046875 50.921875 30 53.453125 
Q 34.96875 56 40.578125 56 
Q 42.046875 56 43.453125 55.828125 
Q 44.875 55.671875 46.296875 55.28125 
z
" id="BitstreamVeraSans-Oblique-72"/>
     <path d="M 45.90625 27 
Q 45.90625 33.203125 42.71875 36.78125 
Q 39.546875 40.375 34.078125 40.375 
Q 26.515625 40.375 21.359375 34.546875 
Q 16.21875 28.71875 16.21875 20.125 
Q 16.21875 13.671875 19.359375 10.03125 
Q 22.515625 6.390625 28.078125 6.390625 
Q 35.6875 6.390625 40.796875 12.375 
Q 45.90625 18.359375 45.90625 27 
M 59.1875 71.1875 
L 57.515625 62.203125 
Q 54.6875 64.0625 51.015625 65.03125 
Q 47.359375 66.015625 43.21875 66.015625 
Q 33.109375 66.015625 26.96875 59.671875 
Q 20.84375 53.328125 17.828125 39.796875 
Q 21.390625 43.953125 26.09375 46.0625 
Q 30.8125 48.1875 36.28125 48.1875 
Q 45.21875 48.1875 50.515625 43.03125 
Q 55.8125 37.890625 55.8125 29.203125 
Q 55.8125 22.078125 53.203125 15.9375 
Q 50.59375 9.8125 45.609375 5.171875 
Q 42.1875 2 37.640625 0.28125 
Q 33.109375 -1.421875 27.984375 -1.421875 
Q 17.921875 -1.421875 12.109375 4.96875 
Q 6.296875 11.375 6.296875 22.515625 
Q 6.296875 32.859375 8.953125 42.453125 
Q 11.625 52.046875 16.40625 59.078125 
Q 21.4375 66.5 28.59375 70.359375 
Q 35.75 74.21875 44.390625 74.21875 
Q 48.1875 74.21875 51.890625 73.453125 
Q 55.609375 72.703125 59.1875 71.1875 
" id="BitstreamVeraSans-Oblique-36"/>
     <path d="M 49.609375 33.6875 
Q 49.609375 40.875 46.484375 44.671875 
Q 43.359375 48.484375 37.5 48.484375 
Q 33.5 48.484375 29.859375 46.4375 
Q 26.21875 44.390625 23.390625 40.484375 
Q 20.609375 36.625 18.9375 31.15625 
Q 17.28125 25.6875 17.28125 20.3125 
Q 17.28125 13.484375 20.40625 9.796875 
Q 23.53125 6.109375 29.296875 6.109375 
Q 33.546875 6.109375 37.1875 8.109375 
Q 40.828125 10.109375 43.40625 13.921875 
Q 46.1875 17.921875 47.890625 23.34375 
Q 49.609375 28.765625 49.609375 33.6875 
M 21.78125 46.390625 
Q 25.390625 51.125 30.296875 53.5625 
Q 35.203125 56 41.21875 56 
Q 49.609375 56 54.25 50.5 
Q 58.890625 45.015625 58.890625 35.109375 
Q 58.890625 27 56 19.65625 
Q 53.125 12.3125 47.703125 6.5 
Q 44.09375 2.640625 39.546875 0.609375 
Q 35.015625 -1.421875 29.984375 -1.421875 
Q 24.171875 -1.421875 20.21875 1 
Q 16.265625 3.421875 14.3125 8.203125 
L 8.6875 -20.796875 
L -0.296875 -20.796875 
L 14.40625 54.6875 
L 23.390625 54.6875 
z
" id="BitstreamVeraSans-Oblique-70"/>
     <path d="M 25.390625 -1.421875 
Q 15.765625 -1.421875 10.171875 4.515625 
Q 4.59375 10.453125 4.59375 20.703125 
Q 4.59375 26.65625 6.515625 32.828125 
Q 8.453125 39.015625 11.53125 43.21875 
Q 16.359375 49.75 22.3125 52.875 
Q 28.265625 56 35.796875 56 
Q 45.125 56 50.859375 50.1875 
Q 56.59375 44.390625 56.59375 35.015625 
Q 56.59375 28.515625 54.6875 22.0625 
Q 52.78125 15.625 49.703125 11.375 
Q 44.921875 4.828125 38.96875 1.703125 
Q 33.015625 -1.421875 25.390625 -1.421875 
M 13.921875 21 
Q 13.921875 13.578125 17.015625 9.890625 
Q 20.125 6.203125 26.421875 6.203125 
Q 35.453125 6.203125 41.375 14.078125 
Q 47.3125 21.96875 47.3125 34.078125 
Q 47.3125 41.15625 44.140625 44.765625 
Q 40.96875 48.390625 34.8125 48.390625 
Q 29.734375 48.390625 25.78125 46.015625 
Q 21.828125 43.65625 18.703125 38.8125 
Q 16.40625 35.203125 15.15625 30.5625 
Q 13.921875 25.921875 13.921875 21 
" id="BitstreamVeraSans-Oblique-6f"/>
     <path d="M 18.3125 75.984375 
L 27.296875 75.984375 
L 12.5 0 
L 3.515625 0 
z
" id="BitstreamVeraSans-Oblique-6c"/>
     <path d="M 24.8125 -5.078125 
Q 18.5625 -15.578125 14.625 -18.1875 
Q 10.6875 -20.796875 4.59375 -20.796875 
L -2.484375 -20.796875 
L -0.984375 -13.28125 
L 4.203125 -13.28125 
Q 7.953125 -13.28125 10.59375 -11.234375 
Q 13.234375 -9.1875 16.5 -3.21875 
L 19.28125 2 
L 7.171875 54.6875 
L 16.703125 54.6875 
L 25.78125 12.796875 
L 50.875 54.6875 
L 60.296875 54.6875 
z
" id="BitstreamVeraSans-Oblique-79"/>
     <path d="M 6.5 8.296875 
L 22.609375 8.296875 
L 33.5 64.40625 
L 15.28125 60.890625 
L 17 69.390625 
L 35.109375 72.90625 
L 45.015625 72.90625 
L 32.421875 8.296875 
L 48.484375 8.296875 
L 46.921875 0 
L 4.890625 0 
z
" id="BitstreamVeraSans-Oblique-31"/>
     <path d="M 53.71875 31.203125 
L 47.609375 0 
L 38.625 0 
L 40.28125 8.296875 
Q 36.328125 3.421875 31.265625 1 
Q 26.21875 -1.421875 20.015625 -1.421875 
Q 13.03125 -1.421875 8.5625 2.84375 
Q 4.109375 7.125 4.109375 13.8125 
Q 4.109375 23.390625 11.75 28.953125 
Q 19.390625 34.515625 32.8125 34.515625 
L 45.3125 34.515625 
L 45.796875 36.921875 
Q 45.90625 37.3125 45.953125 37.765625 
Q 46 38.234375 46 39.203125 
Q 46 43.5625 42.453125 45.96875 
Q 38.921875 48.390625 32.515625 48.390625 
Q 28.125 48.390625 23.5 47.265625 
Q 18.890625 46.140625 14.015625 43.890625 
L 15.578125 52.203125 
Q 20.65625 54.109375 25.515625 55.046875 
Q 30.375 56 34.90625 56 
Q 44.578125 56 49.625 51.796875 
Q 54.6875 47.609375 54.6875 39.59375 
Q 54.6875 37.984375 54.4375 35.8125 
Q 54.203125 33.640625 53.71875 31.203125 
M 44 27.484375 
L 35.015625 27.484375 
Q 23.96875 27.484375 18.671875 24.53125 
Q 13.375 21.578125 13.375 15.375 
Q 13.375 11.078125 16.078125 8.640625 
Q 18.796875 6.203125 23.578125 6.203125 
Q 30.90625 6.203125 36.375 11.453125 
Q 41.84375 16.703125 43.609375 25.484375 
z
" id="BitstreamVeraSans-Oblique-61"/>
     <path d="M 6.109375 31.390625 
L 32.421875 31.390625 
L 30.90625 23.390625 
L 4.5 23.390625 
z
" id="BitstreamVeraSans-Oblique-2d"/>
     <path id="BitstreamVeraSans-Oblique-20"/>
     <path d="M 69.484375 67.28125 
L 67.484375 56.890625 
Q 62.796875 61.625 57.546875 63.921875 
Q 52.296875 66.21875 46.1875 66.21875 
Q 37.84375 66.21875 31.515625 62.203125 
Q 25.203125 58.203125 20.609375 50 
Q 17.671875 44.734375 16.125 38.84375 
Q 14.59375 32.953125 14.59375 27 
Q 14.59375 17.046875 19.75 11.8125 
Q 24.90625 6.59375 34.71875 6.59375 
Q 41.5 6.59375 47.75 8.765625 
Q 54 10.9375 59.90625 15.28125 
L 57.625 3.609375 
Q 51.8125 1.125 45.875 -0.140625 
Q 39.9375 -1.421875 33.984375 -1.421875 
Q 19.96875 -1.421875 12.078125 6.1875 
Q 4.203125 13.8125 4.203125 27.390625 
Q 4.203125 36.078125 7.203125 44.46875 
Q 10.203125 52.875 15.828125 59.8125 
Q 21.78125 67.1875 29.421875 70.703125 
Q 37.0625 74.21875 47.21875 74.21875 
Q 53.46875 74.21875 59.0625 72.484375 
Q 64.65625 70.75 69.484375 67.28125 
" id="BitstreamVeraSans-Oblique-43"/>
     <path d="M 59.625 54.6875 
L 50.296875 6.78125 
Q 47.609375 -7.125 40.015625 -13.953125 
Q 32.421875 -20.796875 19.578125 -20.796875 
Q 14.84375 -20.796875 10.78125 -20.09375 
Q 6.734375 -19.390625 3.21875 -17.921875 
L 4.890625 -9.1875 
Q 8.203125 -11.328125 11.90625 -12.34375 
Q 15.625 -13.375 19.828125 -13.375 
Q 28.375 -13.375 33.859375 -8.703125 
Q 39.359375 -4.046875 41.109375 4.6875 
L 41.890625 8.796875 
Q 38.140625 4.5 33.15625 2.25 
Q 28.171875 0 22.40625 0 
Q 14.109375 0 9.34375 5.484375 
Q 4.59375 10.984375 4.59375 20.609375 
Q 4.59375 28.171875 7.46875 35.421875 
Q 10.359375 42.671875 15.578125 48.296875 
Q 19.046875 52 23.65625 54 
Q 28.265625 56 33.296875 56 
Q 38.8125 56 42.90625 53.4375 
Q 47.015625 50.875 49.03125 46.1875 
L 50.59375 54.6875 
z
M 46.09375 34.625 
Q 46.09375 41.265625 42.96875 44.875 
Q 39.84375 48.484375 34.078125 48.484375 
Q 30.515625 48.484375 27.296875 47.0625 
Q 24.078125 45.65625 21.78125 43.109375 
Q 18.0625 38.921875 15.984375 33.234375 
Q 13.921875 27.546875 13.921875 21.484375 
Q 13.921875 14.75 17.0625 11.125 
Q 20.21875 7.515625 26.125 7.515625 
Q 34.671875 7.515625 40.375 15.25 
Q 46.09375 23 46.09375 34.625 
" id="BitstreamVeraSans-Oblique-67"/>
     <path d="M 38.1875 74.21875 
Q 48.09375 74.21875 53.34375 67.625 
Q 58.59375 61.03125 58.59375 48.6875 
Q 58.59375 39.3125 56.125 30.046875 
Q 53.65625 20.796875 49.21875 13.484375 
Q 44.671875 6.15625 38.546875 2.359375 
Q 32.421875 -1.421875 25 -1.421875 
Q 15.4375 -1.421875 10.203125 5.21875 
Q 4.984375 11.859375 4.984375 24.125 
Q 4.984375 33.40625 7.5 42.703125 
Q 10.015625 52 14.5 59.28125 
Q 19 66.609375 25.03125 70.40625 
Q 31.0625 74.21875 38.1875 74.21875 
M 37.59375 66.40625 
Q 33.890625 66.40625 30.546875 64.421875 
Q 27.203125 62.453125 24.515625 58.59375 
Q 20.015625 52.15625 17.359375 42.5 
Q 14.703125 32.859375 14.703125 22.703125 
Q 14.703125 14.65625 17.546875 10.515625 
Q 20.40625 6.390625 25.984375 6.390625 
Q 29.890625 6.390625 33.203125 8.375 
Q 36.53125 10.359375 39.203125 14.203125 
Q 43.65625 20.609375 46.265625 30.25 
Q 48.875 39.890625 48.875 50.09375 
Q 48.875 58.15625 46.015625 62.28125 
Q 43.171875 66.40625 37.59375 66.40625 
" id="BitstreamVeraSans-Oblique-30"/>
     <path d="M 89.796875 33.015625 
L 83.40625 0 
L 74.421875 0 
L 80.71875 32.71875 
Q 81.109375 34.8125 81.296875 36.328125 
Q 81.5 37.84375 81.5 38.921875 
Q 81.5 43.3125 79.046875 45.75 
Q 76.609375 48.1875 72.21875 48.1875 
Q 65.671875 48.1875 60.546875 43.28125 
Q 55.421875 38.375 53.90625 30.515625 
L 47.90625 0 
L 38.921875 0 
L 45.3125 32.71875 
Q 45.703125 34.515625 45.890625 36.046875 
Q 46.09375 37.59375 46.09375 38.8125 
Q 46.09375 43.265625 43.65625 45.71875 
Q 41.21875 48.1875 36.921875 48.1875 
Q 30.28125 48.1875 25.140625 43.28125 
Q 20.015625 38.375 18.5 30.515625 
L 12.5 0 
L 3.515625 0 
L 14.203125 54.6875 
L 23.1875 54.6875 
L 21.484375 46.1875 
Q 25.140625 50.984375 30.046875 53.484375 
Q 34.96875 56 40.578125 56 
Q 46.53125 56 50.359375 52.875 
Q 54.203125 49.75 54.984375 44.1875 
Q 59.078125 49.953125 64.46875 52.96875 
Q 69.875 56 75.875 56 
Q 82.90625 56 86.734375 51.953125 
Q 90.578125 47.90625 90.578125 40.484375 
Q 90.578125 38.875 90.375 36.9375 
Q 90.1875 35.015625 89.796875 33.015625 
" id="BitstreamVeraSans-Oblique-6d"/>
     <path d="M 6.6875 21.6875 
L 13.09375 54.6875 
L 22.125 54.6875 
L 15.71875 22.015625 
Q 15.234375 19.625 15.015625 17.921875 
Q 14.796875 16.21875 14.796875 15.09375 
Q 14.796875 10.9375 17.328125 8.65625 
Q 19.875 6.390625 24.515625 6.390625 
Q 31.734375 6.390625 37 11.265625 
Q 42.28125 16.15625 43.890625 24.421875 
L 49.90625 54.6875 
L 58.890625 54.6875 
L 48.296875 0 
L 39.3125 0 
L 41.109375 8.59375 
Q 37.3125 3.8125 32.0625 1.1875 
Q 26.8125 -1.421875 20.90625 -1.421875 
Q 13.71875 -1.421875 9.71875 2.515625 
Q 5.71875 6.453125 5.71875 13.484375 
Q 5.71875 14.9375 5.953125 17.140625 
Q 6.203125 19.34375 6.6875 21.6875 
" id="BitstreamVeraSans-Oblique-75"/>
    </defs>
    <g style="fill:#808080;opacity:0.2;" transform="translate(80.928 380.6401875)scale(0.06 -0.06)">
     <use xlink:href="#BitstreamVeraSans-Oblique-43"/>
     <use x="69.82421875" xlink:href="#BitstreamVeraSans-Oblique-6f"/>
     <use x="131.005859375" xlink:href="#BitstreamVeraSans-Oblique-70"/>
     <use x="194.482421875" xlink:href="#BitstreamVeraSans-Oblique-79"/>
     <use x="253.662109375" xlink:href="#BitstreamVeraSans-Oblique-72"/>
     <use x="294.775390625" xlink:href="#BitstreamVeraSans-Oblique-69"/>
     <use x="322.55859375" xlink:href="#BitstreamVeraSans-Oblique-67"/>
     <use x="386.03515625" xlink:href="#BitstreamVeraSans-Oblique-68"/>
     <use x="449.4140625" xlink:href="#BitstreamVeraSans-Oblique-74"/>
     <use x="488.623046875" xlink:href="#BitstreamVeraSans-Oblique-20"/>
     <use x="520.41015625" xlink:href="#BitstreamVeraSans-Oblique-2d"/>
     <use x="556.494140625" xlink:href="#BitstreamVeraSans-Oblique-20"/>
     <use x="588.28125" xlink:href="#BitstreamVeraSans-Oblique-47"/>
     <use x="665.771484375" xlink:href="#BitstreamVeraSans-Oblique-75"/>
     <use x="729.150390625" xlink:href="#BitstreamVeraSans-Oblique-69"/>
     <use x="756.93359375" xlink:href="#BitstreamVeraSans-Oblique-6c"/>
     <use x="784.716796875" xlink:href="#BitstreamVeraSans-Oblique-6c"/>
     <use x="812.5" xlink:href="#BitstreamVeraSans-Oblique-61"/>
     <use x="873.779296875" xlink:href="#BitstreamVeraSans-Oblique-75"/>
     <use x="937.158203125" xlink:href="#BitstreamVeraSans-Oblique-6d"/>
     <use x="1034.5703125" xlink:href="#BitstreamVeraSans-Oblique-65"/>
     <use x="1096.09375" xlink:href="#BitstreamVeraSans-Oblique-20"/>
     <use x="1127.880859375" xlink:href="#BitstreamVeraSans-Oblique-43"/>
     <use x="1197.705078125" xlink:href="#BitstreamVeraSans-Oblique-61"/>
     <use x="1258.984375" xlink:href="#BitstreamVeraSans-Oblique-6e"/>
     <use x="1322.36328125" xlink:href="#BitstreamVeraSans-Oblique-74"/>
     <use x="1361.572265625" xlink:href="#BitstreamVeraSans-Oblique-69"/>
     <use x="1389.35546875" xlink:href="#BitstreamVeraSans-Oblique-6e"/>
     <use x="1452.734375" xlink:href="#BitstreamVeraSans-Oblique-20"/>
     <use x="1484.521484375" xlink:href="#BitstreamVeraSans-Oblique-2d"/>
     <use x="1520.60546875" xlink:href="#BitstreamVeraSans-Oblique-20"/>
     <use x="1552.392578125" xlink:href="#BitstreamVeraSans-Oblique-32"/>
     <use x="1616.015625" xlink:href="#BitstreamVeraSans-Oblique-30"/>
     <use x="1679.638671875" xlink:href="#BitstreamVeraSans-Oblique-31"/>
     <use x="1743.26171875" xlink:href="#BitstreamVeraSans-Oblique-36"/>
    </g>
   </g>
  </g>
 </g>
 <defs>
  <clipPath id="p1b5abd12f0">
   <rect height="345.6" width="446.4" x="72.0" y="43.2"/>
  </clipPath>
 </defs>
</svg>
