<?xml version="1.0" encoding="utf-8" standalone="no"?>
<!DOCTYPE svg PUBLIC "-//W3C//DTD SVG 1.1//EN"
  "http://www.w3.org/Graphics/SVG/1.1/DTD/svg11.dtd">
<!-- Created with matplotlib (http://matplotlib.org/) -->
<svg height="432pt" version="1.1" viewBox="0 0 576 432" width="576pt" xmlns="http://www.w3.org/2000/svg" xmlns:xlink="http://www.w3.org/1999/xlink">
 <defs>
  <style type="text/css">
*{stroke-linecap:butt;stroke-linejoin:round;stroke-miterlimit:100000;}
  </style>
 </defs>
 <g id="figure_1">
  <g id="patch_1">
   <path d="M 0 432 
L 576 432 
L 576 0 
L 0 0 
z
" style="fill:#ffffff;"/>
  </g>
  <g id="axes_1">
   <g id="patch_2">
    <path d="M 72 388.8 
L 518.4 388.8 
L 518.4 43.2 
L 72 43.2 
z
" style="fill:#ffffff;"/>
   </g>
   <g id="line2d_1">
    <path clip-path="url(#p83311f970e)" d="M 72 158.4 
L 72.53568 158.50365 
L 73.07136 158.814256 
L 73.69632 159.436888 
L 74.41056 160.488704 
L 75.21408 162.100276 
L 76.10688 164.413896 
L 77.08896 167.582065 
L 78.2496 172.148837 
L 79.49952 178.03896 
L 80.83872 185.438223 
L 82.35648 195.138195 
L 84.0528 207.533882 
L 86.01696 223.665612 
L 89.05248 250.805001 
L 91.55232 272.361635 
L 93.07008 283.581062 
L 94.23072 290.676989 
L 95.30208 295.882543 
L 96.19488 299.16778 
L 96.9984 301.293155 
L 97.62336 302.407842 
L 98.15904 302.997114 
L 98.69472 303.258018 
L 99.14112 303.232258 
L 99.58752 302.992505 
L 100.1232 302.43203 
L 100.74816 301.417154 
L 101.4624 299.803846 
L 102.26592 297.441386 
L 103.248 293.811946 
L 104.31936 288.974496 
L 105.56928 282.230724 
L 106.90848 273.734834 
L 108.33696 263.241633 
L 109.85472 250.463688 
L 111.55104 234.183538 
L 113.42592 213.84203 
L 115.83648 184.968322 
L 118.872 148.888722 
L 120.30048 134.573939 
L 121.46112 125.135976 
L 122.4432 118.921798 
L 123.24672 115.086697 
L 123.96096 112.604021 
L 124.58592 111.116375 
L 125.1216 110.322972 
L 125.568 109.982967 
L 126.0144 109.919185 
L 126.4608 110.116728 
L 126.9072 110.56095 
L 127.44288 111.399817 
L 128.15712 112.999981 
L 128.96064 115.402849 
L 129.94272 119.124247 
L 131.01408 124.076029 
L 132.264 130.931314 
L 133.69248 140.105313 
L 135.21024 151.388801 
L 136.81728 165.105668 
L 138.42432 180.743183 
L 140.12064 199.433111 
L 141.99552 222.622674 
L 144.85248 261.252274 
L 146.9952 288.999356 
L 148.3344 303.633957 
L 149.40576 313.098904 
L 150.29856 319.271482 
L 151.10208 323.470152 
L 151.81632 326.157619 
L 152.44128 327.747997 
L 152.97696 328.583125 
L 153.42336 328.931454 
L 153.86976 328.984242 
L 154.31616 328.760444 
L 154.76256 328.278354 
L 155.29824 327.383213 
L 156.01248 325.697256 
L 156.816 323.193204 
L 157.79808 319.354304 
L 158.95872 313.834402 
L 160.29792 306.271174 
L 161.7264 296.884177 
L 163.24416 285.440152 
L 164.8512 271.610683 
L 166.54752 254.962388 
L 168.24384 236.058064 
L 170.11872 212.537231 
L 172.70784 176.75759 
L 175.20768 143.037085 
L 176.54688 127.822346 
L 177.61824 117.954335 
L 178.51104 111.504817 
L 179.31456 107.106302 
L 180.0288 104.278732 
L 180.65376 102.591732 
L 181.18944 101.690518 
L 181.63584 101.297237 
L 182.08224 101.207338 
L 182.52864 101.400642 
L 182.97504 101.857707 
L 183.51072 102.728562 
L 184.22496 104.389276 
L 185.02848 106.871052 
L 186.01056 110.686513 
L 187.1712 116.177938 
L 188.5104 123.700587 
L 189.93888 133.029517 
L 191.45664 144.391096 
L 193.06368 158.108328 
L 194.76 174.613771 
L 196.45632 193.364814 
L 198.3312 216.747763 
L 200.74176 250.02831 
L 203.59872 289.056482 
L 204.93792 304.387605 
L 206.00928 314.331173 
L 206.90208 320.828971 
L 207.7056 325.259537 
L 208.41984 328.107415 
L 209.0448 329.806796 
L 209.58048 330.715305 
L 210.02688 331.112743 
L 210.47328 331.205375 
L 210.91968 331.013659 
L 211.36608 330.557287 
L 211.90176 329.686396 
L 212.616 328.024696 
L 213.41952 325.541237 
L 214.4016 321.723822 
L 215.56224 316.231285 
L 216.90144 308.709996 
L 218.32992 299.386387 
L 219.84768 288.035255 
L 221.45472 274.334437 
L 223.15104 257.851359 
L 224.84736 239.124952 
L 226.63296 216.936027 
L 228.95424 185.011311 
L 232.07904 142.218438 
L 233.41824 126.983808 
L 234.4896 117.143493 
L 235.3824 110.740599 
L 236.18592 106.396529 
L 236.90016 103.623131 
L 237.52512 101.985474 
L 238.0608 101.126659 
L 238.5072 100.768157 
L 238.9536 100.712146 
L 239.4 100.938182 
L 239.8464 101.426639 
L 240.38208 102.333237 
L 241.09632 104.038199 
L 241.89984 106.565136 
L 242.88192 110.429585 
L 244.04256 115.97121 
L 245.38176 123.543445 
L 246.81024 132.918048 
L 248.328 144.322896 
L 249.93504 158.083012 
L 251.63136 174.633369 
L 253.32768 193.431232 
L 255.20256 216.868886 
L 257.61312 250.217444 
L 260.47008 289.289792 
L 261.80928 304.616559 
L 262.88064 314.545273 
L 263.77344 321.025002 
L 264.57696 325.436606 
L 265.2912 328.266636 
L 265.91616 329.950301 
L 266.45184 330.845601 
L 266.89824 331.232369 
L 267.34464 331.314721 
L 267.79104 331.113171 
L 268.23744 330.647444 
L 268.77312 329.765977 
L 269.48736 328.091272 
L 270.29088 325.594607 
L 271.27296 321.762888 
L 272.4336 316.255625 
L 273.7728 308.719586 
L 275.20128 299.382046 
L 276.71904 288.017248 
L 278.32608 274.302361 
L 280.0224 257.804099 
L 281.71872 239.061749 
L 283.50432 216.855654 
L 285.8256 184.911825 
L 288.86112 143.227894 
L 290.20032 127.810817 
L 291.27168 117.793505 
L 292.25376 110.671817 
L 293.05728 106.338819 
L 293.77152 103.575148 
L 294.39648 101.945668 
L 294.93216 101.093508 
L 295.37856 100.740261 
L 295.82496 100.689224 
L 296.27136 100.919946 
L 296.71776 101.412806 
L 297.25344 102.324325 
L 297.96768 104.035276 
L 298.7712 106.56825 
L 299.75328 110.439233 
L 300.91392 115.987654 
L 302.25312 123.566873 
L 303.6816 132.948361 
L 305.19936 144.36033 
L 306.8064 158.128172 
L 308.50272 174.687191 
L 310.19904 193.494224 
L 312.07392 216.941798 
L 314.48448 250.298805 
L 317.34144 289.36434 
L 318.68064 304.679932 
L 319.752 314.597158 
L 320.6448 321.066532 
L 321.44832 325.468815 
L 322.16256 328.290889 
L 322.78752 329.968005 
L 323.3232 330.858059 
L 323.7696 331.240731 
L 324.216 331.319243 
L 324.6624 331.114104 
L 325.1088 330.64503 
L 325.64448 329.759846 
L 326.35872 328.080648 
L 327.16224 325.579476 
L 328.14432 321.742883 
L 329.30496 316.230527 
L 330.64416 308.689178 
L 332.07264 299.346285 
L 333.5904 287.975803 
L 335.19744 274.254593 
L 336.89376 257.749119 
L 338.59008 238.999096 
L 340.37568 216.785183 
L 342.69696 184.834912 
L 345.73248 143.159342 
L 347.07168 127.753582 
L 348.14304 117.747568 
L 349.03584 111.199895 
L 349.83936 106.72812 
L 350.5536 103.847353 
L 351.17856 102.122301 
L 351.71424 101.194077 
L 352.16064 100.781749 
L 352.60704 100.675534 
L 353.05344 100.85487 
L 353.49984 101.299952 
L 354.03552 102.158571 
L 354.74976 103.805743 
L 355.55328 106.274854 
L 356.53536 110.076805 
L 357.696 115.552881 
L 359.0352 123.056203 
L 360.46368 132.36042 
L 361.98144 143.689402 
L 363.58848 157.364019 
L 365.2848 173.816004 
L 366.98112 192.509001 
L 368.76672 214.665082 
L 371.088 246.569315 
L 374.2128 289.431185 
L 375.552 304.735263 
L 376.62336 314.641164 
L 377.51616 321.100559 
L 378.31968 325.49399 
L 379.03392 328.30859 
L 379.65888 329.979602 
L 380.19456 330.864797 
L 380.64096 331.243695 
L 381.08736 331.31868 
L 381.53376 331.110256 
L 381.98016 330.638127 
L 382.51584 329.74956 
L 383.23008 328.066283 
L 384.0336 325.561025 
L 385.01568 321.720016 
L 386.17632 316.203032 
L 387.51552 308.656829 
L 388.944 299.308997 
L 390.46176 287.933214 
L 392.0688 274.206052 
L 393.76512 257.693747 
L 395.46144 238.936448 
L 397.24704 216.71517 
L 399.56832 184.759082 
L 402.60384 143.092504 
L 403.94304 127.698151 
L 405.0144 117.703407 
L 405.9072 111.165693 
L 406.71072 106.702769 
L 407.42496 103.829484 
L 408.04992 102.110547 
L 408.5856 101.187195 
L 409.032 100.778653 
L 409.4784 100.675975 
L 409.9248 100.858607 
L 410.3712 101.306754 
L 410.90688 102.168765 
L 411.62112 103.820028 
L 412.42464 106.293233 
L 413.40672 110.099607 
L 414.56736 115.580312 
L 415.90656 123.088481 
L 417.33504 132.397624 
L 418.8528 143.731887 
L 420.45984 157.412428 
L 422.15616 173.871214 
L 423.85248 192.571466 
L 425.63808 214.734918 
L 427.95936 246.645069 
L 431.08416 289.497624 
L 432.42336 304.790158 
L 433.49472 314.684735 
L 434.38752 321.134168 
L 435.19104 325.518771 
L 435.90528 328.325924 
L 436.53024 329.990859 
L 437.06592 330.871217 
L 437.51232 331.246357 
L 437.95872 331.317835 
L 438.40512 331.106143 
L 438.85152 330.630975 
L 439.3872 329.739044 
L 440.10144 328.051711 
L 440.90496 325.542391 
L 441.88704 321.69699 
L 443.04768 316.175402 
L 444.38688 308.624369 
L 445.81536 299.271618 
L 447.33312 287.890551 
L 448.94016 274.157454 
L 450.63648 257.638336 
L 452.3328 238.873779 
L 454.1184 216.645161 
L 456.43968 184.683302 
L 459.4752 143.025783 
L 460.8144 127.642857 
L 461.88576 117.659388 
L 462.77856 111.13163 
L 463.58208 106.677549 
L 464.29632 103.811738 
L 464.92128 102.098908 
L 465.45696 101.18042 
L 465.90336 100.775658 
L 466.34976 100.676511 
L 466.79616 100.862433 
L 467.24256 101.313638 
L 467.77824 102.179036 
L 468.49248 103.834382 
L 469.296 106.311674 
L 470.27808 110.122462 
L 471.43872 115.607788 
L 472.77792 123.120799 
L 474.2064 132.434862 
L 475.72416 143.774402 
L 477.3312 157.460866 
L 479.02752 173.926451 
L 480.72384 192.633954 
L 482.50944 214.804769 
L 484.83072 246.720816 
L 487.95552 289.564007 
L 489.29472 304.844981 
L 490.36608 314.728229 
L 491.25888 321.1677 
L 492.0624 325.543479 
L 492.77664 328.34319 
L 493.4016 330.002052 
L 493.93728 330.877577 
L 494.38368 331.248965 
L 494.83008 331.316937 
L 495.27648 331.101981 
L 495.72288 330.623778 
L 496.25856 329.728487 
L 496.9728 328.037101 
L 497.77632 325.523723 
L 498.7584 321.673934 
L 499.91904 316.147746 
L 501.25824 308.591885 
L 502.68672 299.234217 
L 504.20448 287.847867 
L 505.81152 274.108834 
L 507.50784 257.582901 
L 509.20416 238.811087 
L 511.07904 215.400643 
L 513.4896 182.070074 
L 516.34656 142.959105 
L 517.68576 127.587619 
L 518.31072 121.49377 
L 518.31072 121.49377 
" style="fill:none;stroke:#0000ff;stroke-linecap:square;"/>
   </g>
   <g id="patch_3">
    <path d="M 72 388.8 
L 518.4 388.8 
" style="fill:none;stroke:#000000;stroke-linecap:square;stroke-linejoin:miter;"/>
   </g>
   <g id="patch_4">
    <path d="M 72 388.8 
L 72 43.2 
" style="fill:none;stroke:#000000;stroke-linecap:square;stroke-linejoin:miter;"/>
   </g>
   <g id="matplotlib.axis_1">
    <g id="xtick_1">
     <g id="line2d_2">
      <path clip-path="url(#p83311f970e)" d="M 72 388.8 
L 72 43.2 
" style="fill:none;stroke:#000000;stroke-dasharray:1.000000,3.000000;stroke-dashoffset:0.0;stroke-width:0.5;"/>
     </g>
     <g id="line2d_3">
      <defs>
       <path d="M 0 0 
L 0 -4 
" id="md995f85f7f" style="stroke:#000000;stroke-width:0.5;"/>
      </defs>
      <g>
       <use style="stroke:#000000;stroke-width:0.5;" x="72.0" xlink:href="#md995f85f7f" y="388.8"/>
      </g>
     </g>
     <g id="text_1">
      <!-- 0 -->
      <defs>
       <path d="M 31.78125 66.40625 
Q 24.171875 66.40625 20.328125 58.90625 
Q 16.5 51.421875 16.5 36.375 
Q 16.5 21.390625 20.328125 13.890625 
Q 24.171875 6.390625 31.78125 6.390625 
Q 39.453125 6.390625 43.28125 13.890625 
Q 47.125 21.390625 47.125 36.375 
Q 47.125 51.421875 43.28125 58.90625 
Q 39.453125 66.40625 31.78125 66.40625 
M 31.78125 74.21875 
Q 44.046875 74.21875 50.515625 64.515625 
Q 56.984375 54.828125 56.984375 36.375 
Q 56.984375 17.96875 50.515625 8.265625 
Q 44.046875 -1.421875 31.78125 -1.421875 
Q 19.53125 -1.421875 13.0625 8.265625 
Q 6.59375 17.96875 6.59375 36.375 
Q 6.59375 54.828125 13.0625 64.515625 
Q 19.53125 74.21875 31.78125 74.21875 
" id="BitstreamVeraSans-Roman-30"/>
      </defs>
      <g transform="translate(68.1825 401.918125)scale(0.12 -0.12)">
       <use xlink:href="#BitstreamVeraSans-Roman-30"/>
      </g>
     </g>
    </g>
    <g id="xtick_2">
     <g id="line2d_4">
      <path clip-path="url(#p83311f970e)" d="M 161.28 388.8 
L 161.28 43.2 
" style="fill:none;stroke:#000000;stroke-dasharray:1.000000,3.000000;stroke-dashoffset:0.0;stroke-width:0.5;"/>
     </g>
     <g id="line2d_5">
      <g>
       <use style="stroke:#000000;stroke-width:0.5;" x="161.28" xlink:href="#md995f85f7f" y="388.8"/>
      </g>
     </g>
     <g id="text_2">
      <!-- 10 -->
      <defs>
       <path d="M 12.40625 8.296875 
L 28.515625 8.296875 
L 28.515625 63.921875 
L 10.984375 60.40625 
L 10.984375 69.390625 
L 28.421875 72.90625 
L 38.28125 72.90625 
L 38.28125 8.296875 
L 54.390625 8.296875 
L 54.390625 0 
L 12.40625 0 
z
" id="BitstreamVeraSans-Roman-31"/>
      </defs>
      <g transform="translate(153.645 401.918125)scale(0.12 -0.12)">
       <use xlink:href="#BitstreamVeraSans-Roman-31"/>
       <use x="63.623046875" xlink:href="#BitstreamVeraSans-Roman-30"/>
      </g>
     </g>
    </g>
    <g id="xtick_3">
     <g id="line2d_6">
      <path clip-path="url(#p83311f970e)" d="M 250.56 388.8 
L 250.56 43.2 
" style="fill:none;stroke:#000000;stroke-dasharray:1.000000,3.000000;stroke-dashoffset:0.0;stroke-width:0.5;"/>
     </g>
     <g id="line2d_7">
      <g>
       <use style="stroke:#000000;stroke-width:0.5;" x="250.56" xlink:href="#md995f85f7f" y="388.8"/>
      </g>
     </g>
     <g id="text_3">
      <!-- 20 -->
      <defs>
       <path d="M 19.1875 8.296875 
L 53.609375 8.296875 
L 53.609375 0 
L 7.328125 0 
L 7.328125 8.296875 
Q 12.9375 14.109375 22.625 23.890625 
Q 32.328125 33.6875 34.8125 36.53125 
Q 39.546875 41.84375 41.421875 45.53125 
Q 43.3125 49.21875 43.3125 52.78125 
Q 43.3125 58.59375 39.234375 62.25 
Q 35.15625 65.921875 28.609375 65.921875 
Q 23.96875 65.921875 18.8125 64.3125 
Q 13.671875 62.703125 7.8125 59.421875 
L 7.8125 69.390625 
Q 13.765625 71.78125 18.9375 73 
Q 24.125 74.21875 28.421875 74.21875 
Q 39.75 74.21875 46.484375 68.546875 
Q 53.21875 62.890625 53.21875 53.421875 
Q 53.21875 48.921875 51.53125 44.890625 
Q 49.859375 40.875 45.40625 35.40625 
Q 44.1875 33.984375 37.640625 27.21875 
Q 31.109375 20.453125 19.1875 8.296875 
" id="BitstreamVeraSans-Roman-32"/>
      </defs>
      <g transform="translate(242.925 401.918125)scale(0.12 -0.12)">
       <use xlink:href="#BitstreamVeraSans-Roman-32"/>
       <use x="63.623046875" xlink:href="#BitstreamVeraSans-Roman-30"/>
      </g>
     </g>
    </g>
    <g id="xtick_4">
     <g id="line2d_8">
      <path clip-path="url(#p83311f970e)" d="M 339.84 388.8 
L 339.84 43.2 
" style="fill:none;stroke:#000000;stroke-dasharray:1.000000,3.000000;stroke-dashoffset:0.0;stroke-width:0.5;"/>
     </g>
     <g id="line2d_9">
      <g>
       <use style="stroke:#000000;stroke-width:0.5;" x="339.84" xlink:href="#md995f85f7f" y="388.8"/>
      </g>
     </g>
     <g id="text_4">
      <!-- 30 -->
      <defs>
       <path d="M 40.578125 39.3125 
Q 47.65625 37.796875 51.625 33 
Q 55.609375 28.21875 55.609375 21.1875 
Q 55.609375 10.40625 48.1875 4.484375 
Q 40.765625 -1.421875 27.09375 -1.421875 
Q 22.515625 -1.421875 17.65625 -0.515625 
Q 12.796875 0.390625 7.625 2.203125 
L 7.625 11.71875 
Q 11.71875 9.328125 16.59375 8.109375 
Q 21.484375 6.890625 26.8125 6.890625 
Q 36.078125 6.890625 40.9375 10.546875 
Q 45.796875 14.203125 45.796875 21.1875 
Q 45.796875 27.640625 41.28125 31.265625 
Q 36.765625 34.90625 28.71875 34.90625 
L 20.21875 34.90625 
L 20.21875 43.015625 
L 29.109375 43.015625 
Q 36.375 43.015625 40.234375 45.921875 
Q 44.09375 48.828125 44.09375 54.296875 
Q 44.09375 59.90625 40.109375 62.90625 
Q 36.140625 65.921875 28.71875 65.921875 
Q 24.65625 65.921875 20.015625 65.03125 
Q 15.375 64.15625 9.8125 62.3125 
L 9.8125 71.09375 
Q 15.4375 72.65625 20.34375 73.4375 
Q 25.25 74.21875 29.59375 74.21875 
Q 40.828125 74.21875 47.359375 69.109375 
Q 53.90625 64.015625 53.90625 55.328125 
Q 53.90625 49.265625 50.4375 45.09375 
Q 46.96875 40.921875 40.578125 39.3125 
" id="BitstreamVeraSans-Roman-33"/>
      </defs>
      <g transform="translate(332.205 401.918125)scale(0.12 -0.12)">
       <use xlink:href="#BitstreamVeraSans-Roman-33"/>
       <use x="63.623046875" xlink:href="#BitstreamVeraSans-Roman-30"/>
      </g>
     </g>
    </g>
    <g id="xtick_5">
     <g id="line2d_10">
      <path clip-path="url(#p83311f970e)" d="M 429.12 388.8 
L 429.12 43.2 
" style="fill:none;stroke:#000000;stroke-dasharray:1.000000,3.000000;stroke-dashoffset:0.0;stroke-width:0.5;"/>
     </g>
     <g id="line2d_11">
      <g>
       <use style="stroke:#000000;stroke-width:0.5;" x="429.12" xlink:href="#md995f85f7f" y="388.8"/>
      </g>
     </g>
     <g id="text_5">
      <!-- 40 -->
      <defs>
       <path d="M 37.796875 64.3125 
L 12.890625 25.390625 
L 37.796875 25.390625 
z
M 35.203125 72.90625 
L 47.609375 72.90625 
L 47.609375 25.390625 
L 58.015625 25.390625 
L 58.015625 17.1875 
L 47.609375 17.1875 
L 47.609375 0 
L 37.796875 0 
L 37.796875 17.1875 
L 4.890625 17.1875 
L 4.890625 26.703125 
z
" id="BitstreamVeraSans-Roman-34"/>
      </defs>
      <g transform="translate(421.485 401.918125)scale(0.12 -0.12)">
       <use xlink:href="#BitstreamVeraSans-Roman-34"/>
       <use x="63.623046875" xlink:href="#BitstreamVeraSans-Roman-30"/>
      </g>
     </g>
    </g>
    <g id="xtick_6">
     <g id="line2d_12">
      <path clip-path="url(#p83311f970e)" d="M 518.4 388.8 
L 518.4 43.2 
" style="fill:none;stroke:#000000;stroke-dasharray:1.000000,3.000000;stroke-dashoffset:0.0;stroke-width:0.5;"/>
     </g>
     <g id="line2d_13">
      <g>
       <use style="stroke:#000000;stroke-width:0.5;" x="518.4" xlink:href="#md995f85f7f" y="388.8"/>
      </g>
     </g>
     <g id="text_6">
      <!-- 50 -->
      <defs>
       <path d="M 10.796875 72.90625 
L 49.515625 72.90625 
L 49.515625 64.59375 
L 19.828125 64.59375 
L 19.828125 46.734375 
Q 21.96875 47.46875 24.109375 47.828125 
Q 26.265625 48.1875 28.421875 48.1875 
Q 40.625 48.1875 47.75 41.5 
Q 54.890625 34.8125 54.890625 23.390625 
Q 54.890625 11.625 47.5625 5.09375 
Q 40.234375 -1.421875 26.90625 -1.421875 
Q 22.3125 -1.421875 17.546875 -0.640625 
Q 12.796875 0.140625 7.71875 1.703125 
L 7.71875 11.625 
Q 12.109375 9.234375 16.796875 8.0625 
Q 21.484375 6.890625 26.703125 6.890625 
Q 35.15625 6.890625 40.078125 11.328125 
Q 45.015625 15.765625 45.015625 23.390625 
Q 45.015625 31 40.078125 35.4375 
Q 35.15625 39.890625 26.703125 39.890625 
Q 22.75 39.890625 18.8125 39.015625 
Q 14.890625 38.140625 10.796875 36.28125 
z
" id="BitstreamVeraSans-Roman-35"/>
      </defs>
      <g transform="translate(510.765 401.918125)scale(0.12 -0.12)">
       <use xlink:href="#BitstreamVeraSans-Roman-35"/>
       <use x="63.623046875" xlink:href="#BitstreamVeraSans-Roman-30"/>
      </g>
     </g>
    </g>
    <g id="text_7">
     <!-- $t$ -->
     <defs>
      <path d="M 6.203125 8.109375 
Q 6.203125 9.578125 6.5 10.890625 
L 13.71875 39.59375 
L 3.21875 39.59375 
Q 2.203125 39.59375 2.203125 40.921875 
Q 2.59375 43.109375 3.515625 43.109375 
L 14.59375 43.109375 
L 18.609375 59.421875 
Q 19 60.75 20.171875 61.671875 
Q 21.34375 62.59375 22.796875 62.59375 
Q 24.078125 62.59375 24.921875 61.828125 
Q 25.78125 61.078125 25.78125 59.8125 
Q 25.78125 59.515625 25.75 59.34375 
Q 25.734375 59.1875 25.6875 58.984375 
L 21.6875 43.109375 
L 31.984375 43.109375 
Q 33.015625 43.109375 33.015625 41.796875 
Q 32.953125 41.546875 32.8125 40.953125 
Q 32.671875 40.375 32.421875 39.984375 
Q 32.171875 39.59375 31.6875 39.59375 
L 20.796875 39.59375 
L 13.625 10.6875 
Q 12.890625 7.859375 12.890625 5.8125 
Q 12.890625 1.515625 15.828125 1.515625 
Q 20.21875 1.515625 23.609375 5.640625 
Q 27 9.765625 28.8125 14.703125 
Q 29.203125 15.28125 29.59375 15.28125 
L 30.8125 15.28125 
Q 31.203125 15.28125 31.4375 15.015625 
Q 31.6875 14.75 31.6875 14.40625 
Q 31.6875 14.203125 31.59375 14.109375 
Q 29.390625 8.0625 25.1875 3.46875 
Q 21 -1.125 15.578125 -1.125 
Q 11.625 -1.125 8.90625 1.453125 
Q 6.203125 4.046875 6.203125 8.109375 
" id="Cmmi10-74"/>
     </defs>
     <g transform="translate(292.98 418.531875)scale(0.12 -0.12)">
      <use transform="translate(0.0 0.40625)" xlink:href="#Cmmi10-74"/>
     </g>
    </g>
   </g>
   <g id="matplotlib.axis_2">
    <g id="ytick_1">
     <g id="line2d_14">
      <path clip-path="url(#p83311f970e)" d="M 72 388.8 
L 518.4 388.8 
" style="fill:none;stroke:#000000;stroke-dasharray:1.000000,3.000000;stroke-dashoffset:0.0;stroke-width:0.5;"/>
     </g>
     <g id="line2d_15">
      <defs>
       <path d="M 0 0 
L 4 0 
" id="m0a353cbe19" style="stroke:#000000;stroke-width:0.5;"/>
      </defs>
      <g>
       <use style="stroke:#000000;stroke-width:0.5;" x="72.0" xlink:href="#m0a353cbe19" y="388.8"/>
      </g>
     </g>
     <g id="text_8">
      <!-- −3 -->
      <defs>
       <path d="M 10.59375 35.5 
L 73.1875 35.5 
L 73.1875 27.203125 
L 10.59375 27.203125 
z
" id="BitstreamVeraSans-Roman-2212"/>
      </defs>
      <g transform="translate(50.309375 392.11125)scale(0.12 -0.12)">
       <use xlink:href="#BitstreamVeraSans-Roman-2212"/>
       <use x="83.7890625" xlink:href="#BitstreamVeraSans-Roman-33"/>
      </g>
     </g>
    </g>
    <g id="ytick_2">
     <g id="line2d_16">
      <path clip-path="url(#p83311f970e)" d="M 72 331.2 
L 518.4 331.2 
" style="fill:none;stroke:#000000;stroke-dasharray:1.000000,3.000000;stroke-dashoffset:0.0;stroke-width:0.5;"/>
     </g>
     <g id="line2d_17">
      <g>
       <use style="stroke:#000000;stroke-width:0.5;" x="72.0" xlink:href="#m0a353cbe19" y="331.2"/>
      </g>
     </g>
     <g id="text_9">
      <!-- −2 -->
      <g transform="translate(50.309375 334.51125)scale(0.12 -0.12)">
       <use xlink:href="#BitstreamVeraSans-Roman-2212"/>
       <use x="83.7890625" xlink:href="#BitstreamVeraSans-Roman-32"/>
      </g>
     </g>
    </g>
    <g id="ytick_3">
     <g id="line2d_18">
      <path clip-path="url(#p83311f970e)" d="M 72 273.6 
L 518.4 273.6 
" style="fill:none;stroke:#000000;stroke-dasharray:1.000000,3.000000;stroke-dashoffset:0.0;stroke-width:0.5;"/>
     </g>
     <g id="line2d_19">
      <g>
       <use style="stroke:#000000;stroke-width:0.5;" x="72.0" xlink:href="#m0a353cbe19" y="273.6"/>
      </g>
     </g>
     <g id="text_10">
      <!-- −1 -->
      <g transform="translate(50.309375 276.91125)scale(0.12 -0.12)">
       <use xlink:href="#BitstreamVeraSans-Roman-2212"/>
       <use x="83.7890625" xlink:href="#BitstreamVeraSans-Roman-31"/>
      </g>
     </g>
    </g>
    <g id="ytick_4">
     <g id="line2d_20">
      <path clip-path="url(#p83311f970e)" d="M 72 216 
L 518.4 216 
" style="fill:none;stroke:#000000;stroke-dasharray:1.000000,3.000000;stroke-dashoffset:0.0;stroke-width:0.5;"/>
     </g>
     <g id="line2d_21">
      <g>
       <use style="stroke:#000000;stroke-width:0.5;" x="72.0" xlink:href="#m0a353cbe19" y="216.0"/>
      </g>
     </g>
     <g id="text_11">
      <!-- 0 -->
      <g transform="translate(60.365 219.31125)scale(0.12 -0.12)">
       <use xlink:href="#BitstreamVeraSans-Roman-30"/>
      </g>
     </g>
    </g>
    <g id="ytick_5">
     <g id="line2d_22">
      <path clip-path="url(#p83311f970e)" d="M 72 158.4 
L 518.4 158.4 
" style="fill:none;stroke:#000000;stroke-dasharray:1.000000,3.000000;stroke-dashoffset:0.0;stroke-width:0.5;"/>
     </g>
     <g id="line2d_23">
      <g>
       <use style="stroke:#000000;stroke-width:0.5;" x="72.0" xlink:href="#m0a353cbe19" y="158.4"/>
      </g>
     </g>
     <g id="text_12">
      <!-- 1 -->
      <g transform="translate(60.365 161.71125)scale(0.12 -0.12)">
       <use xlink:href="#BitstreamVeraSans-Roman-31"/>
      </g>
     </g>
    </g>
    <g id="ytick_6">
     <g id="line2d_24">
      <path clip-path="url(#p83311f970e)" d="M 72 100.8 
L 518.4 100.8 
" style="fill:none;stroke:#000000;stroke-dasharray:1.000000,3.000000;stroke-dashoffset:0.0;stroke-width:0.5;"/>
     </g>
     <g id="line2d_25">
      <g>
       <use style="stroke:#000000;stroke-width:0.5;" x="72.0" xlink:href="#m0a353cbe19" y="100.8"/>
      </g>
     </g>
     <g id="text_13">
      <!-- 2 -->
      <g transform="translate(60.365 104.11125)scale(0.12 -0.12)">
       <use xlink:href="#BitstreamVeraSans-Roman-32"/>
      </g>
     </g>
    </g>
    <g id="ytick_7">
     <g id="line2d_26">
      <path clip-path="url(#p83311f970e)" d="M 72 43.2 
L 518.4 43.2 
" style="fill:none;stroke:#000000;stroke-dasharray:1.000000,3.000000;stroke-dashoffset:0.0;stroke-width:0.5;"/>
     </g>
     <g id="line2d_27">
      <g>
       <use style="stroke:#000000;stroke-width:0.5;" x="72.0" xlink:href="#m0a353cbe19" y="43.2"/>
      </g>
     </g>
     <g id="text_14">
      <!-- 3 -->
      <g transform="translate(60.365 46.51125)scale(0.12 -0.12)">
       <use xlink:href="#BitstreamVeraSans-Roman-33"/>
      </g>
     </g>
    </g>
    <g id="text_15">
     <!-- $x_1$ -->
     <defs>
      <path d="M 9.28125 0 
L 9.28125 3.515625 
Q 21.78125 3.515625 21.78125 6.6875 
L 21.78125 59.1875 
Q 16.609375 56.6875 8.6875 56.6875 
L 8.6875 60.203125 
Q 20.953125 60.203125 27.203125 66.609375 
L 28.609375 66.609375 
Q 28.953125 66.609375 29.265625 66.328125 
Q 29.59375 66.0625 29.59375 65.71875 
L 29.59375 6.6875 
Q 29.59375 3.515625 42.09375 3.515625 
L 42.09375 0 
z
" id="Cmr10-31"/>
      <path d="M 7.8125 2.875 
Q 9.578125 1.515625 12.796875 1.515625 
Q 15.921875 1.515625 18.3125 4.515625 
Q 20.703125 7.515625 21.578125 11.078125 
L 26.125 28.8125 
Q 27.203125 33.640625 27.203125 35.40625 
Q 27.203125 37.890625 25.8125 39.75 
Q 24.421875 41.609375 21.921875 41.609375 
Q 18.75 41.609375 15.96875 39.625 
Q 13.1875 37.640625 11.28125 34.59375 
Q 9.375 31.546875 8.59375 28.421875 
Q 8.40625 27.78125 7.8125 27.78125 
L 6.59375 27.78125 
Q 5.8125 27.78125 5.8125 28.71875 
L 5.8125 29 
Q 6.78125 32.71875 9.125 36.25 
Q 11.46875 39.796875 14.859375 41.984375 
Q 18.265625 44.1875 22.125 44.1875 
Q 25.78125 44.1875 28.734375 42.234375 
Q 31.6875 40.28125 32.90625 36.921875 
Q 34.625 39.984375 37.28125 42.078125 
Q 39.9375 44.1875 43.109375 44.1875 
Q 45.265625 44.1875 47.5 43.421875 
Q 49.75 42.671875 51.171875 41.109375 
Q 52.59375 39.546875 52.59375 37.203125 
Q 52.59375 34.671875 50.953125 32.828125 
Q 49.3125 31 46.78125 31 
Q 45.171875 31 44.09375 32.03125 
Q 43.015625 33.0625 43.015625 34.625 
Q 43.015625 36.71875 44.453125 38.296875 
Q 45.90625 39.890625 47.90625 40.1875 
Q 46.09375 41.609375 42.921875 41.609375 
Q 39.703125 41.609375 37.328125 38.625 
Q 34.96875 35.640625 33.984375 31.984375 
L 29.59375 14.3125 
Q 28.515625 10.296875 28.515625 7.71875 
Q 28.515625 5.171875 29.953125 3.34375 
Q 31.390625 1.515625 33.796875 1.515625 
Q 38.484375 1.515625 42.15625 5.640625 
Q 45.84375 9.765625 47.015625 14.703125 
Q 47.21875 15.28125 47.796875 15.28125 
L 49.03125 15.28125 
Q 49.421875 15.28125 49.65625 15.015625 
Q 49.90625 14.75 49.90625 14.40625 
Q 49.90625 14.3125 49.8125 14.109375 
Q 48.390625 8.15625 43.84375 3.515625 
Q 39.3125 -1.125 33.59375 -1.125 
Q 29.9375 -1.125 26.984375 0.84375 
Q 24.03125 2.828125 22.796875 6.203125 
Q 21.234375 3.265625 18.46875 1.0625 
Q 15.71875 -1.125 12.59375 -1.125 
Q 10.453125 -1.125 8.171875 -0.359375 
Q 5.90625 0.390625 4.484375 1.953125 
Q 3.078125 3.515625 3.078125 5.90625 
Q 3.078125 8.25 4.703125 10.171875 
Q 6.34375 12.109375 8.796875 12.109375 
Q 10.453125 12.109375 11.578125 11.109375 
Q 12.703125 10.109375 12.703125 8.5 
Q 12.703125 6.390625 11.296875 4.828125 
Q 9.90625 3.265625 7.8125 2.875 
" id="Cmmi10-78"/>
     </defs>
     <g transform="translate(39.369375 213.504375)scale(0.12 -0.12)">
      <use transform="translate(0.0 0.8125)" xlink:href="#Cmmi10-78"/>
      <use transform="translate(57.080078125 -16.19375)scale(0.7)" xlink:href="#Cmr10-31"/>
     </g>
    </g>
   </g>
   <g id="text_16">
    <!-- Copyright - Guillaume Cantin - 2016 -->
    <defs>
     <path id="BitstreamVeraSans-Oblique-20"/>
     <path d="M 55.71875 33.015625 
L 49.3125 0 
L 40.28125 0 
L 46.6875 32.671875 
Q 47.125 34.96875 47.359375 36.71875 
Q 47.609375 38.484375 47.609375 39.5 
Q 47.609375 43.609375 45.015625 45.890625 
Q 42.4375 48.1875 37.796875 48.1875 
Q 30.5625 48.1875 25.265625 43.296875 
Q 19.96875 38.421875 18.40625 30.328125 
L 12.5 0 
L 3.515625 0 
L 18.3125 75.984375 
L 27.296875 75.984375 
L 21.484375 46.09375 
Q 24.90625 50.6875 30.21875 53.34375 
Q 35.546875 56 41.40625 56 
Q 48.640625 56 52.609375 52.09375 
Q 56.59375 48.1875 56.59375 41.109375 
Q 56.59375 39.359375 56.375 37.359375 
Q 56.15625 35.359375 55.71875 33.015625 
" id="BitstreamVeraSans-Oblique-68"/>
     <path d="M 69.484375 67.28125 
L 67.484375 56.890625 
Q 62.796875 61.625 57.546875 63.921875 
Q 52.296875 66.21875 46.1875 66.21875 
Q 37.84375 66.21875 31.515625 62.203125 
Q 25.203125 58.203125 20.609375 50 
Q 17.671875 44.734375 16.125 38.84375 
Q 14.59375 32.953125 14.59375 27 
Q 14.59375 17.046875 19.75 11.8125 
Q 24.90625 6.59375 34.71875 6.59375 
Q 41.5 6.59375 47.75 8.765625 
Q 54 10.9375 59.90625 15.28125 
L 57.625 3.609375 
Q 51.8125 1.125 45.875 -0.140625 
Q 39.9375 -1.421875 33.984375 -1.421875 
Q 19.96875 -1.421875 12.078125 6.1875 
Q 4.203125 13.8125 4.203125 27.390625 
Q 4.203125 36.078125 7.203125 44.46875 
Q 10.203125 52.875 15.828125 59.8125 
Q 21.78125 67.1875 29.421875 70.703125 
Q 37.0625 74.21875 47.21875 74.21875 
Q 53.46875 74.21875 59.0625 72.484375 
Q 64.65625 70.75 69.484375 67.28125 
" id="BitstreamVeraSans-Oblique-43"/>
     <path d="M 46.09375 35.203125 
L 14.59375 8.203125 
L 49.421875 8.203125 
L 47.703125 0 
L 0.390625 0 
L 2 8.296875 
L 34.90625 36.53125 
Q 41.5 42.234375 44.25 46.546875 
Q 47.015625 50.875 47.015625 55.421875 
Q 47.015625 60.15625 43.6875 63.125 
Q 40.375 66.109375 35.015625 66.109375 
Q 30.375 66.109375 24.703125 64.453125 
Q 19.046875 62.796875 12.59375 59.625 
L 14.40625 69.390625 
Q 20.453125 71.78125 25.96875 73 
Q 31.5 74.21875 36.1875 74.21875 
Q 45.75 74.21875 51.578125 69.140625 
Q 57.421875 64.0625 57.421875 55.8125 
Q 57.421875 50.25 54.640625 45.1875 
Q 51.859375 40.140625 46.09375 35.203125 
" id="BitstreamVeraSans-Oblique-32"/>
     <path d="M 45.90625 27 
Q 45.90625 33.203125 42.71875 36.78125 
Q 39.546875 40.375 34.078125 40.375 
Q 26.515625 40.375 21.359375 34.546875 
Q 16.21875 28.71875 16.21875 20.125 
Q 16.21875 13.671875 19.359375 10.03125 
Q 22.515625 6.390625 28.078125 6.390625 
Q 35.6875 6.390625 40.796875 12.375 
Q 45.90625 18.359375 45.90625 27 
M 59.1875 71.1875 
L 57.515625 62.203125 
Q 54.6875 64.0625 51.015625 65.03125 
Q 47.359375 66.015625 43.21875 66.015625 
Q 33.109375 66.015625 26.96875 59.671875 
Q 20.84375 53.328125 17.828125 39.796875 
Q 21.390625 43.953125 26.09375 46.0625 
Q 30.8125 48.1875 36.28125 48.1875 
Q 45.21875 48.1875 50.515625 43.03125 
Q 55.8125 37.890625 55.8125 29.203125 
Q 55.8125 22.078125 53.203125 15.9375 
Q 50.59375 9.8125 45.609375 5.171875 
Q 42.1875 2 37.640625 0.28125 
Q 33.109375 -1.421875 27.984375 -1.421875 
Q 17.921875 -1.421875 12.109375 4.96875 
Q 6.296875 11.375 6.296875 22.515625 
Q 6.296875 32.859375 8.953125 42.453125 
Q 11.625 52.046875 16.40625 59.078125 
Q 21.4375 66.5 28.59375 70.359375 
Q 35.75 74.21875 44.390625 74.21875 
Q 48.1875 74.21875 51.890625 73.453125 
Q 55.609375 72.703125 59.1875 71.1875 
" id="BitstreamVeraSans-Oblique-36"/>
     <path d="M 54.59375 10.890625 
L 58.40625 29.984375 
L 42.1875 29.984375 
L 43.703125 38.09375 
L 69.578125 38.09375 
L 63.28125 6 
Q 56.78125 2.4375 49.109375 0.5 
Q 41.453125 -1.421875 33.6875 -1.421875 
Q 19.96875 -1.421875 12.234375 6.1875 
Q 4.5 13.8125 4.5 27.390625 
Q 4.5 38.671875 9.203125 48.84375 
Q 13.921875 59.03125 22.21875 65.828125 
Q 27.4375 70.0625 33.640625 72.140625 
Q 39.84375 74.21875 47.40625 74.21875 
Q 54.25 74.21875 60.515625 72.484375 
Q 66.796875 70.75 72.515625 67.28125 
L 70.515625 56.78125 
Q 66.109375 61.375 60.203125 63.796875 
Q 54.296875 66.21875 47.609375 66.21875 
Q 39.84375 66.21875 33.9375 63.25 
Q 28.03125 60.296875 23.390625 54.109375 
Q 19.4375 48.828125 17.15625 41.671875 
Q 14.890625 34.515625 14.890625 27.09375 
Q 14.890625 16.890625 20.109375 11.734375 
Q 25.34375 6.59375 35.6875 6.59375 
Q 40.875 6.59375 45.703125 7.6875 
Q 50.53125 8.796875 54.59375 10.890625 
" id="BitstreamVeraSans-Oblique-47"/>
     <path d="M 25.390625 -1.421875 
Q 15.765625 -1.421875 10.171875 4.515625 
Q 4.59375 10.453125 4.59375 20.703125 
Q 4.59375 26.65625 6.515625 32.828125 
Q 8.453125 39.015625 11.53125 43.21875 
Q 16.359375 49.75 22.3125 52.875 
Q 28.265625 56 35.796875 56 
Q 45.125 56 50.859375 50.1875 
Q 56.59375 44.390625 56.59375 35.015625 
Q 56.59375 28.515625 54.6875 22.0625 
Q 52.78125 15.625 49.703125 11.375 
Q 44.921875 4.828125 38.96875 1.703125 
Q 33.015625 -1.421875 25.390625 -1.421875 
M 13.921875 21 
Q 13.921875 13.578125 17.015625 9.890625 
Q 20.125 6.203125 26.421875 6.203125 
Q 35.453125 6.203125 41.375 14.078125 
Q 47.3125 21.96875 47.3125 34.078125 
Q 47.3125 41.15625 44.140625 44.765625 
Q 40.96875 48.390625 34.8125 48.390625 
Q 29.734375 48.390625 25.78125 46.015625 
Q 21.828125 43.65625 18.703125 38.8125 
Q 16.40625 35.203125 15.15625 30.5625 
Q 13.921875 25.921875 13.921875 21 
" id="BitstreamVeraSans-Oblique-6f"/>
     <path d="M 24.8125 -5.078125 
Q 18.5625 -15.578125 14.625 -18.1875 
Q 10.6875 -20.796875 4.59375 -20.796875 
L -2.484375 -20.796875 
L -0.984375 -13.28125 
L 4.203125 -13.28125 
Q 7.953125 -13.28125 10.59375 -11.234375 
Q 13.234375 -9.1875 16.5 -3.21875 
L 19.28125 2 
L 7.171875 54.6875 
L 16.703125 54.6875 
L 25.78125 12.796875 
L 50.875 54.6875 
L 60.296875 54.6875 
z
" id="BitstreamVeraSans-Oblique-79"/>
     <path d="M 53.71875 31.203125 
L 47.609375 0 
L 38.625 0 
L 40.28125 8.296875 
Q 36.328125 3.421875 31.265625 1 
Q 26.21875 -1.421875 20.015625 -1.421875 
Q 13.03125 -1.421875 8.5625 2.84375 
Q 4.109375 7.125 4.109375 13.8125 
Q 4.109375 23.390625 11.75 28.953125 
Q 19.390625 34.515625 32.8125 34.515625 
L 45.3125 34.515625 
L 45.796875 36.921875 
Q 45.90625 37.3125 45.953125 37.765625 
Q 46 38.234375 46 39.203125 
Q 46 43.5625 42.453125 45.96875 
Q 38.921875 48.390625 32.515625 48.390625 
Q 28.125 48.390625 23.5 47.265625 
Q 18.890625 46.140625 14.015625 43.890625 
L 15.578125 52.203125 
Q 20.65625 54.109375 25.515625 55.046875 
Q 30.375 56 34.90625 56 
Q 44.578125 56 49.625 51.796875 
Q 54.6875 47.609375 54.6875 39.59375 
Q 54.6875 37.984375 54.4375 35.8125 
Q 54.203125 33.640625 53.71875 31.203125 
M 44 27.484375 
L 35.015625 27.484375 
Q 23.96875 27.484375 18.671875 24.53125 
Q 13.375 21.578125 13.375 15.375 
Q 13.375 11.078125 16.078125 8.640625 
Q 18.796875 6.203125 23.578125 6.203125 
Q 30.90625 6.203125 36.375 11.453125 
Q 41.84375 16.703125 43.609375 25.484375 
z
" id="BitstreamVeraSans-Oblique-61"/>
     <path d="M 44.578125 46.390625 
Q 43.21875 47.125 41.453125 47.515625 
Q 39.703125 47.90625 37.703125 47.90625 
Q 30.515625 47.90625 25.140625 42.453125 
Q 19.78125 37.015625 18.015625 27.875 
L 12.5 0 
L 3.515625 0 
L 14.203125 54.6875 
L 23.1875 54.6875 
L 21.484375 46.1875 
Q 25.046875 50.921875 30 53.453125 
Q 34.96875 56 40.578125 56 
Q 42.046875 56 43.453125 55.828125 
Q 44.875 55.671875 46.296875 55.28125 
z
" id="BitstreamVeraSans-Oblique-72"/>
     <path d="M 59.625 54.6875 
L 50.296875 6.78125 
Q 47.609375 -7.125 40.015625 -13.953125 
Q 32.421875 -20.796875 19.578125 -20.796875 
Q 14.84375 -20.796875 10.78125 -20.09375 
Q 6.734375 -19.390625 3.21875 -17.921875 
L 4.890625 -9.1875 
Q 8.203125 -11.328125 11.90625 -12.34375 
Q 15.625 -13.375 19.828125 -13.375 
Q 28.375 -13.375 33.859375 -8.703125 
Q 39.359375 -4.046875 41.109375 4.6875 
L 41.890625 8.796875 
Q 38.140625 4.5 33.15625 2.25 
Q 28.171875 0 22.40625 0 
Q 14.109375 0 9.34375 5.484375 
Q 4.59375 10.984375 4.59375 20.609375 
Q 4.59375 28.171875 7.46875 35.421875 
Q 10.359375 42.671875 15.578125 48.296875 
Q 19.046875 52 23.65625 54 
Q 28.265625 56 33.296875 56 
Q 38.8125 56 42.90625 53.4375 
Q 47.015625 50.875 49.03125 46.1875 
L 50.59375 54.6875 
z
M 46.09375 34.625 
Q 46.09375 41.265625 42.96875 44.875 
Q 39.84375 48.484375 34.078125 48.484375 
Q 30.515625 48.484375 27.296875 47.0625 
Q 24.078125 45.65625 21.78125 43.109375 
Q 18.0625 38.921875 15.984375 33.234375 
Q 13.921875 27.546875 13.921875 21.484375 
Q 13.921875 14.75 17.0625 11.125 
Q 20.21875 7.515625 26.125 7.515625 
Q 34.671875 7.515625 40.375 15.25 
Q 46.09375 23 46.09375 34.625 
" id="BitstreamVeraSans-Oblique-67"/>
     <path d="M 6.6875 21.6875 
L 13.09375 54.6875 
L 22.125 54.6875 
L 15.71875 22.015625 
Q 15.234375 19.625 15.015625 17.921875 
Q 14.796875 16.21875 14.796875 15.09375 
Q 14.796875 10.9375 17.328125 8.65625 
Q 19.875 6.390625 24.515625 6.390625 
Q 31.734375 6.390625 37 11.265625 
Q 42.28125 16.15625 43.890625 24.421875 
L 49.90625 54.6875 
L 58.890625 54.6875 
L 48.296875 0 
L 39.3125 0 
L 41.109375 8.59375 
Q 37.3125 3.8125 32.0625 1.1875 
Q 26.8125 -1.421875 20.90625 -1.421875 
Q 13.71875 -1.421875 9.71875 2.515625 
Q 5.71875 6.453125 5.71875 13.484375 
Q 5.71875 14.9375 5.953125 17.140625 
Q 6.203125 19.34375 6.6875 21.6875 
" id="BitstreamVeraSans-Oblique-75"/>
     <path d="M 49.609375 33.6875 
Q 49.609375 40.875 46.484375 44.671875 
Q 43.359375 48.484375 37.5 48.484375 
Q 33.5 48.484375 29.859375 46.4375 
Q 26.21875 44.390625 23.390625 40.484375 
Q 20.609375 36.625 18.9375 31.15625 
Q 17.28125 25.6875 17.28125 20.3125 
Q 17.28125 13.484375 20.40625 9.796875 
Q 23.53125 6.109375 29.296875 6.109375 
Q 33.546875 6.109375 37.1875 8.109375 
Q 40.828125 10.109375 43.40625 13.921875 
Q 46.1875 17.921875 47.890625 23.34375 
Q 49.609375 28.765625 49.609375 33.6875 
M 21.78125 46.390625 
Q 25.390625 51.125 30.296875 53.5625 
Q 35.203125 56 41.21875 56 
Q 49.609375 56 54.25 50.5 
Q 58.890625 45.015625 58.890625 35.109375 
Q 58.890625 27 56 19.65625 
Q 53.125 12.3125 47.703125 6.5 
Q 44.09375 2.640625 39.546875 0.609375 
Q 35.015625 -1.421875 29.984375 -1.421875 
Q 24.171875 -1.421875 20.21875 1 
Q 16.265625 3.421875 14.3125 8.203125 
L 8.6875 -20.796875 
L -0.296875 -20.796875 
L 14.40625 54.6875 
L 23.390625 54.6875 
z
" id="BitstreamVeraSans-Oblique-70"/>
     <path d="M 89.796875 33.015625 
L 83.40625 0 
L 74.421875 0 
L 80.71875 32.71875 
Q 81.109375 34.8125 81.296875 36.328125 
Q 81.5 37.84375 81.5 38.921875 
Q 81.5 43.3125 79.046875 45.75 
Q 76.609375 48.1875 72.21875 48.1875 
Q 65.671875 48.1875 60.546875 43.28125 
Q 55.421875 38.375 53.90625 30.515625 
L 47.90625 0 
L 38.921875 0 
L 45.3125 32.71875 
Q 45.703125 34.515625 45.890625 36.046875 
Q 46.09375 37.59375 46.09375 38.8125 
Q 46.09375 43.265625 43.65625 45.71875 
Q 41.21875 48.1875 36.921875 48.1875 
Q 30.28125 48.1875 25.140625 43.28125 
Q 20.015625 38.375 18.5 30.515625 
L 12.5 0 
L 3.515625 0 
L 14.203125 54.6875 
L 23.1875 54.6875 
L 21.484375 46.1875 
Q 25.140625 50.984375 30.046875 53.484375 
Q 34.96875 56 40.578125 56 
Q 46.53125 56 50.359375 52.875 
Q 54.203125 49.75 54.984375 44.1875 
Q 59.078125 49.953125 64.46875 52.96875 
Q 69.875 56 75.875 56 
Q 82.90625 56 86.734375 51.953125 
Q 90.578125 47.90625 90.578125 40.484375 
Q 90.578125 38.875 90.375 36.9375 
Q 90.1875 35.015625 89.796875 33.015625 
" id="BitstreamVeraSans-Oblique-6d"/>
     <path d="M 38.1875 74.21875 
Q 48.09375 74.21875 53.34375 67.625 
Q 58.59375 61.03125 58.59375 48.6875 
Q 58.59375 39.3125 56.125 30.046875 
Q 53.65625 20.796875 49.21875 13.484375 
Q 44.671875 6.15625 38.546875 2.359375 
Q 32.421875 -1.421875 25 -1.421875 
Q 15.4375 -1.421875 10.203125 5.21875 
Q 4.984375 11.859375 4.984375 24.125 
Q 4.984375 33.40625 7.5 42.703125 
Q 10.015625 52 14.5 59.28125 
Q 19 66.609375 25.03125 70.40625 
Q 31.0625 74.21875 38.1875 74.21875 
M 37.59375 66.40625 
Q 33.890625 66.40625 30.546875 64.421875 
Q 27.203125 62.453125 24.515625 58.59375 
Q 20.015625 52.15625 17.359375 42.5 
Q 14.703125 32.859375 14.703125 22.703125 
Q 14.703125 14.65625 17.546875 10.515625 
Q 20.40625 6.390625 25.984375 6.390625 
Q 29.890625 6.390625 33.203125 8.375 
Q 36.53125 10.359375 39.203125 14.203125 
Q 43.65625 20.609375 46.265625 30.25 
Q 48.875 39.890625 48.875 50.09375 
Q 48.875 58.15625 46.015625 62.28125 
Q 43.171875 66.40625 37.59375 66.40625 
" id="BitstreamVeraSans-Oblique-30"/>
     <path d="M 18.3125 75.984375 
L 27.296875 75.984375 
L 12.5 0 
L 3.515625 0 
z
" id="BitstreamVeraSans-Oblique-6c"/>
     <path d="M 42.28125 54.6875 
L 40.921875 47.703125 
L 23 47.703125 
L 17.1875 18.015625 
Q 16.890625 16.359375 16.75 15.234375 
Q 16.609375 14.109375 16.609375 13.484375 
Q 16.609375 10.359375 18.484375 8.9375 
Q 20.359375 7.515625 24.515625 7.515625 
L 33.59375 7.515625 
L 32.078125 0 
L 23.484375 0 
Q 15.484375 0 11.546875 3.125 
Q 7.625 6.25 7.625 12.59375 
Q 7.625 13.71875 7.765625 15.0625 
Q 7.90625 16.40625 8.203125 18.015625 
L 14.015625 47.703125 
L 6.390625 47.703125 
L 7.8125 54.6875 
L 15.28125 54.6875 
L 18.3125 70.21875 
L 27.296875 70.21875 
L 24.3125 54.6875 
z
" id="BitstreamVeraSans-Oblique-74"/>
     <path d="M 6.5 8.296875 
L 22.609375 8.296875 
L 33.5 64.40625 
L 15.28125 60.890625 
L 17 69.390625 
L 35.109375 72.90625 
L 45.015625 72.90625 
L 32.421875 8.296875 
L 48.484375 8.296875 
L 46.921875 0 
L 4.890625 0 
z
" id="BitstreamVeraSans-Oblique-31"/>
     <path d="M 6.109375 31.390625 
L 32.421875 31.390625 
L 30.90625 23.390625 
L 4.5 23.390625 
z
" id="BitstreamVeraSans-Oblique-2d"/>
     <path d="M 18.3125 75.984375 
L 27.296875 75.984375 
L 25.09375 64.59375 
L 16.109375 64.59375 
z
M 14.203125 54.6875 
L 23.1875 54.6875 
L 12.5 0 
L 3.515625 0 
z
" id="BitstreamVeraSans-Oblique-69"/>
     <path d="M 48.09375 32.234375 
Q 48.25 33.015625 48.3125 33.84375 
Q 48.390625 34.671875 48.390625 35.5 
Q 48.390625 41.453125 44.890625 44.921875 
Q 41.40625 48.390625 35.40625 48.390625 
Q 28.71875 48.390625 23.578125 44.15625 
Q 18.453125 39.9375 15.828125 32.171875 
z
M 55.90625 25.203125 
L 14.109375 25.203125 
Q 13.8125 23.34375 13.71875 22.265625 
Q 13.625 21.1875 13.625 20.40625 
Q 13.625 13.625 17.796875 9.90625 
Q 21.96875 6.203125 29.59375 6.203125 
Q 35.453125 6.203125 40.671875 7.515625 
Q 45.90625 8.84375 50.390625 11.375 
L 48.6875 2.484375 
Q 43.84375 0.53125 38.6875 -0.4375 
Q 33.546875 -1.421875 28.21875 -1.421875 
Q 16.84375 -1.421875 10.71875 4.015625 
Q 4.59375 9.46875 4.59375 19.484375 
Q 4.59375 28.03125 7.640625 35.375 
Q 10.6875 42.71875 16.609375 48.484375 
Q 20.40625 52.09375 25.65625 54.046875 
Q 30.90625 56 36.8125 56 
Q 46.09375 56 51.578125 50.4375 
Q 57.078125 44.875 57.078125 35.5 
Q 57.078125 33.25 56.78125 30.6875 
Q 56.5 28.125 55.90625 25.203125 
" id="BitstreamVeraSans-Oblique-65"/>
     <path d="M 55.71875 33.015625 
L 49.3125 0 
L 40.28125 0 
L 46.6875 32.671875 
Q 47.125 34.96875 47.359375 36.71875 
Q 47.609375 38.484375 47.609375 39.5 
Q 47.609375 43.609375 45.015625 45.890625 
Q 42.4375 48.1875 37.796875 48.1875 
Q 30.5625 48.1875 25.34375 43.375 
Q 20.125 38.578125 18.5 30.328125 
L 12.5 0 
L 3.515625 0 
L 14.109375 54.6875 
L 23.09375 54.6875 
L 21.296875 46.09375 
Q 25.046875 50.828125 30.3125 53.40625 
Q 35.59375 56 41.40625 56 
Q 48.640625 56 52.609375 52.09375 
Q 56.59375 48.1875 56.59375 41.109375 
Q 56.59375 39.359375 56.375 37.359375 
Q 56.15625 35.359375 55.71875 33.015625 
" id="BitstreamVeraSans-Oblique-6e"/>
    </defs>
    <g style="fill:#808080;opacity:0.2;" transform="translate(80.928 380.6401875)scale(0.06 -0.06)">
     <use xlink:href="#BitstreamVeraSans-Oblique-43"/>
     <use x="69.82421875" xlink:href="#BitstreamVeraSans-Oblique-6f"/>
     <use x="131.005859375" xlink:href="#BitstreamVeraSans-Oblique-70"/>
     <use x="194.482421875" xlink:href="#BitstreamVeraSans-Oblique-79"/>
     <use x="253.662109375" xlink:href="#BitstreamVeraSans-Oblique-72"/>
     <use x="294.775390625" xlink:href="#BitstreamVeraSans-Oblique-69"/>
     <use x="322.55859375" xlink:href="#BitstreamVeraSans-Oblique-67"/>
     <use x="386.03515625" xlink:href="#BitstreamVeraSans-Oblique-68"/>
     <use x="449.4140625" xlink:href="#BitstreamVeraSans-Oblique-74"/>
     <use x="488.623046875" xlink:href="#BitstreamVeraSans-Oblique-20"/>
     <use x="520.41015625" xlink:href="#BitstreamVeraSans-Oblique-2d"/>
     <use x="556.494140625" xlink:href="#BitstreamVeraSans-Oblique-20"/>
     <use x="588.28125" xlink:href="#BitstreamVeraSans-Oblique-47"/>
     <use x="665.771484375" xlink:href="#BitstreamVeraSans-Oblique-75"/>
     <use x="729.150390625" xlink:href="#BitstreamVeraSans-Oblique-69"/>
     <use x="756.93359375" xlink:href="#BitstreamVeraSans-Oblique-6c"/>
     <use x="784.716796875" xlink:href="#BitstreamVeraSans-Oblique-6c"/>
     <use x="812.5" xlink:href="#BitstreamVeraSans-Oblique-61"/>
     <use x="873.779296875" xlink:href="#BitstreamVeraSans-Oblique-75"/>
     <use x="937.158203125" xlink:href="#BitstreamVeraSans-Oblique-6d"/>
     <use x="1034.5703125" xlink:href="#BitstreamVeraSans-Oblique-65"/>
     <use x="1096.09375" xlink:href="#BitstreamVeraSans-Oblique-20"/>
     <use x="1127.880859375" xlink:href="#BitstreamVeraSans-Oblique-43"/>
     <use x="1197.705078125" xlink:href="#BitstreamVeraSans-Oblique-61"/>
     <use x="1258.984375" xlink:href="#BitstreamVeraSans-Oblique-6e"/>
     <use x="1322.36328125" xlink:href="#BitstreamVeraSans-Oblique-74"/>
     <use x="1361.572265625" xlink:href="#BitstreamVeraSans-Oblique-69"/>
     <use x="1389.35546875" xlink:href="#BitstreamVeraSans-Oblique-6e"/>
     <use x="1452.734375" xlink:href="#BitstreamVeraSans-Oblique-20"/>
     <use x="1484.521484375" xlink:href="#BitstreamVeraSans-Oblique-2d"/>
     <use x="1520.60546875" xlink:href="#BitstreamVeraSans-Oblique-20"/>
     <use x="1552.392578125" xlink:href="#BitstreamVeraSans-Oblique-32"/>
     <use x="1616.015625" xlink:href="#BitstreamVeraSans-Oblique-30"/>
     <use x="1679.638671875" xlink:href="#BitstreamVeraSans-Oblique-31"/>
     <use x="1743.26171875" xlink:href="#BitstreamVeraSans-Oblique-36"/>
    </g>
   </g>
  </g>
 </g>
 <defs>
  <clipPath id="p83311f970e">
   <rect height="345.6" width="446.4" x="72.0" y="43.2"/>
  </clipPath>
 </defs>
</svg>
